<?xml version="1.0" encoding="UTF-8" standalone="no"?>
<svg width="130.85mm" height="28.6058mm" viewBox="0 0 6181.88 1351.45"
 xmlns="http://www.w3.org/2000/svg" xmlns:xlink="http://www.w3.org/1999/xlink" version="1.2" baseProfile="full">
<title>EPI1b-1.musicxml</title>
<desc>Generated by MuseScore Studio 4.7.5</desc>
<polyline class="StaffLines" fill="none" stroke="#000000" stroke-width="9.09" stroke-linejoin="bevel" points="111.77,127.763 6173.88,127.763" />
<polyline class="StaffLines" fill="none" stroke="#000000" stroke-width="9.09" stroke-linejoin="bevel" points="111.77,210.44 6173.88,210.44" />
<polyline class="StaffLines" fill="none" stroke="#000000" stroke-width="9.09" stroke-linejoin="bevel" points="111.77,293.117 6173.88,293.117" />
<polyline class="StaffLines" fill="none" stroke="#000000" stroke-width="9.09" stroke-linejoin="bevel" points="111.77,375.794 6173.88,375.794" />
<polyline class="StaffLines" fill="none" stroke="#000000" stroke-width="9.09" stroke-linejoin="bevel" points="111.77,458.471 6173.88,458.471" />
<polyline class="StaffLines" fill="none" stroke="#000000" stroke-width="9.09" stroke-linejoin="bevel" points="111.77,995.873 6173.88,995.873" />
<polyline class="StaffLines" fill="none" stroke="#000000" stroke-width="9.09" stroke-linejoin="bevel" points="111.77,1078.55 6173.88,1078.55" />
<polyline class="StaffLines" fill="none" stroke="#000000" stroke-width="9.09" stroke-linejoin="bevel" points="111.77,1161.23 6173.88,1161.23" />
<polyline class="StaffLines" fill="none" stroke="#000000" stroke-width="9.09" stroke-linejoin="bevel" points="111.77,1243.9 6173.88,1243.9" />
<polyline class="StaffLines" fill="none" stroke="#000000" stroke-width="9.09" stroke-linejoin="bevel" points="111.77,1326.58 6173.88,1326.58" />
<polyline class="BarLine" fill="none" stroke="#000000" stroke-width="14.88" stroke-linejoin="bevel" points="6090.37,123.215 6090.37,995.873" />
<polyline class="BarLine" fill="none" stroke="#000000" stroke-width="45.47" stroke-linejoin="bevel" points="6151.14,123.215 6151.14,995.873" />
<polyline class="BarLine" fill="none" stroke="#000000" stroke-width="14.88" stroke-linejoin="bevel" points="4016.83,123.215 4016.83,995.873" />
<polyline class="BarLine" fill="none" stroke="#000000" stroke-width="14.88" stroke-linejoin="bevel" points="1867.22,123.215 1867.22,995.873" />
<polyline class="BarLine" fill="none" stroke="#000000" stroke-width="14.88" stroke-linejoin="bevel" points="119.211,123.215 119.211,995.873" />
<polyline class="BarLine" fill="none" stroke="#000000" stroke-width="14.88" stroke-linejoin="bevel" points="5091.63,123.215 5091.63,995.873" />
<polyline class="BarLine" fill="none" stroke="#000000" stroke-width="14.88" stroke-linejoin="bevel" points="2942.03,123.215 2942.03,995.873" />
<polyline class="BarLine" fill="none" stroke="#000000" stroke-width="14.88" stroke-linejoin="bevel" points="6090.37,991.325 6090.37,1331.13" />
<polyline class="BarLine" fill="none" stroke="#000000" stroke-width="45.47" stroke-linejoin="bevel" points="6151.14,991.325 6151.14,1331.13" />
<polyline class="BarLine" fill="none" stroke="#000000" stroke-width="14.88" stroke-linejoin="bevel" points="119.211,991.325 119.211,1331.13" />
<polyline class="BarLine" fill="none" stroke="#000000" stroke-width="14.88" stroke-linejoin="bevel" points="1867.22,991.325 1867.22,1331.13" />
<polyline class="BarLine" fill="none" stroke="#000000" stroke-width="14.88" stroke-linejoin="bevel" points="5091.63,991.325 5091.63,1331.13" />
<polyline class="BarLine" fill="none" stroke="#000000" stroke-width="14.88" stroke-linejoin="bevel" points="4016.83,991.325 4016.83,1331.13" />
<polyline class="BarLine" fill="none" stroke="#000000" stroke-width="14.88" stroke-linejoin="bevel" points="2942.03,991.325 2942.03,1331.13" />
<path class="Accidental" d="M5196.51,527.908 C5196.51,554.057 5182.94,567.959 5163.74,583.185 L5164.73,518.64 C5165.39,515.661 5170.36,506.062 5183.6,506.062 C5195.51,506.062 5196.51,517.316 5196.51,524.267 L5196.51,527.908 M5192.53,489.843 C5175.98,489.843 5166.39,500.104 5164.73,502.09 L5166.05,395.839 C5166.05,393.191 5164.07,391.205 5161.42,391.205 L5157.45,391.205 C5154.8,391.205 5152.81,393.191 5152.81,395.839 L5154.47,594.77 C5154.47,597.418 5156.46,599.404 5159.1,599.404 C5159.77,599.404 5161.09,599.073 5161.75,598.742 C5190.22,584.509 5220.01,557.367 5220.01,523.274 C5220.01,506.062 5212.06,489.843 5192.53,489.843"/>
<path class="Accidental" d="M4316.35,486.57 C4316.35,512.719 4302.78,526.621 4283.58,541.847 L4284.57,477.302 C4285.24,474.323 4290.2,464.724 4303.44,464.724 C4315.36,464.724 4316.35,475.978 4316.35,482.929 L4316.35,486.57 M4312.38,448.505 C4295.83,448.505 4286.23,458.766 4284.57,460.752 L4285.9,354.501 C4285.9,351.853 4283.91,349.867 4281.26,349.867 L4277.29,349.867 C4274.64,349.867 4272.66,351.853 4272.66,354.501 L4274.31,553.432 C4274.31,556.08 4276.3,558.066 4278.95,558.066 C4279.61,558.066 4280.93,557.735 4281.59,557.404 C4310.06,543.171 4339.85,516.029 4339.85,481.936 C4339.85,464.724 4331.91,448.505 4312.38,448.505"/>
<path class="Accidental" d="M5232.06,362.554 C5232.06,388.703 5218.49,402.605 5199.29,417.831 L5200.28,353.286 C5200.94,350.307 5205.91,340.708 5219.15,340.708 C5231.06,340.708 5232.06,351.962 5232.06,358.913 L5232.06,362.554 M5228.09,324.489 C5211.54,324.489 5201.94,334.75 5200.28,336.736 L5201.61,230.485 C5201.61,227.837 5199.62,225.851 5196.97,225.851 L5193,225.851 C5190.35,225.851 5188.37,227.837 5188.37,230.485 L5190.02,429.416 C5190.02,432.064 5192.01,434.05 5194.65,434.05 C5195.32,434.05 5196.64,433.719 5197.3,433.388 C5225.77,419.155 5255.56,392.013 5255.56,357.92 C5255.56,340.708 5247.61,324.489 5228.09,324.489"/>
<path class="Accidental" d="M1972.1,527.908 C1972.1,554.057 1958.53,567.959 1939.33,583.185 L1940.32,518.64 C1940.98,515.661 1945.95,506.062 1959.19,506.062 C1971.1,506.062 1972.1,517.316 1972.1,524.267 L1972.1,527.908 M1968.13,489.843 C1951.58,489.843 1941.98,500.104 1940.32,502.09 L1941.65,395.839 C1941.65,393.191 1939.66,391.205 1937.01,391.205 L1933.04,391.205 C1930.39,391.205 1928.41,393.191 1928.41,395.839 L1930.06,594.77 C1930.06,597.418 1932.05,599.404 1934.69,599.404 C1935.36,599.404 1936.68,599.073 1937.34,598.742 C1965.81,584.509 1995.6,557.367 1995.6,523.274 C1995.6,506.062 1987.65,489.843 1968.13,489.843"/>
<path class="Accidental" d="M3046.9,527.908 C3046.9,554.057 3033.33,567.959 3014.13,583.185 L3015.12,518.64 C3015.79,515.661 3020.75,506.062 3033.99,506.062 C3045.91,506.062 3046.9,517.316 3046.9,524.267 L3046.9,527.908 M3042.93,489.843 C3026.38,489.843 3016.78,500.104 3015.12,502.09 L3016.45,395.839 C3016.45,393.191 3014.46,391.205 3011.81,391.205 L3007.84,391.205 C3005.19,391.205 3003.21,393.191 3003.21,395.839 L3004.86,594.77 C3004.86,597.418 3006.85,599.404 3009.5,599.404 C3010.16,599.404 3011.48,599.073 3012.15,598.742 C3040.61,584.509 3070.4,557.367 3070.4,523.274 C3070.4,506.062 3062.46,489.843 3042.93,489.843"/>
<path class="Accidental" d="M897.294,527.908 C897.294,554.057 883.723,567.959 864.525,583.185 L865.518,518.64 C866.18,515.661 871.145,506.062 884.385,506.062 C896.301,506.062 897.294,517.316 897.294,524.267 L897.294,527.908 M893.322,489.843 C876.772,489.843 867.173,500.104 865.518,502.09 L866.842,395.839 C866.842,393.191 864.856,391.205 862.208,391.205 L858.236,391.205 C855.588,391.205 853.602,393.191 853.602,395.839 L855.257,594.77 C855.257,597.418 857.243,599.404 859.891,599.404 C860.553,599.404 861.877,599.073 862.539,598.742 C891.005,584.509 920.795,557.367 920.795,523.274 C920.795,506.062 912.851,489.843 893.322,489.843"/>
<path class="Accidental" d="M3082.45,362.554 C3082.45,388.703 3068.88,402.605 3049.68,417.831 L3050.68,353.286 C3051.34,350.307 3056.3,340.708 3069.54,340.708 C3081.46,340.708 3082.45,351.962 3082.45,358.913 L3082.45,362.554 M3078.48,324.489 C3061.93,324.489 3052.33,334.75 3050.68,336.736 L3052,230.485 C3052,227.837 3050.01,225.851 3047.37,225.851 L3043.39,225.851 C3040.75,225.851 3038.76,227.837 3038.76,230.485 L3040.41,429.416 C3040.41,432.064 3042.4,434.05 3045.05,434.05 C3045.71,434.05 3047.03,433.719 3047.7,433.388 C3076.16,419.155 3105.95,392.013 3105.95,357.92 C3105.95,340.708 3098.01,324.489 3078.48,324.489"/>
<path class="Accidental" d="M4121.7,1065.31 C4121.7,1091.46 4108.13,1105.36 4088.93,1120.59 L4089.93,1056.04 C4090.59,1053.06 4095.55,1043.46 4108.79,1043.46 C4120.71,1043.46 4121.7,1054.72 4121.7,1061.67 L4121.7,1065.31 M4117.73,1027.24 C4101.18,1027.24 4091.58,1037.51 4089.93,1039.49 L4091.25,933.241 C4091.25,930.593 4089.27,928.607 4086.62,928.607 L4082.65,928.607 C4080,928.607 4078.01,930.593 4078.01,933.241 L4079.67,1132.17 C4079.67,1134.82 4081.65,1136.81 4084.3,1136.81 C4084.96,1136.81 4086.29,1136.47 4086.95,1136.14 C4115.41,1121.91 4145.2,1094.77 4145.2,1060.68 C4145.2,1043.46 4137.26,1027.24 4117.73,1027.24"/>
<path class="Accidental" d="M4209.51,1023.97 C4209.51,1050.12 4195.94,1064.02 4176.75,1079.25 L4177.74,1014.7 C4178.4,1011.72 4183.37,1002.13 4196.61,1002.13 C4208.52,1002.13 4209.51,1013.38 4209.51,1020.33 L4209.51,1023.97 M4205.54,985.906 C4188.99,985.906 4179.39,996.167 4177.74,998.153 L4179.06,891.902 C4179.06,889.254 4177.08,887.268 4174.43,887.268 L4170.46,887.268 C4167.81,887.268 4165.82,889.254 4165.82,891.902 L4167.48,1090.83 C4167.48,1093.48 4169.46,1095.47 4172.11,1095.47 C4172.77,1095.47 4174.1,1095.14 4174.76,1094.81 C4203.23,1080.57 4233.02,1053.43 4233.02,1019.34 C4233.02,1002.13 4225.07,985.906 4205.54,985.906"/>
<path class="Accidental" d="M1993.59,1023.97 C1993.59,1050.12 1980.02,1064.02 1960.82,1079.25 L1961.82,1014.7 C1962.48,1011.72 1967.44,1002.13 1980.68,1002.13 C1992.6,1002.13 1993.59,1013.38 1993.59,1020.33 L1993.59,1023.97 M1989.62,985.906 C1973.07,985.906 1963.47,996.167 1961.82,998.153 L1963.14,891.902 C1963.14,889.254 1961.16,887.268 1958.51,887.268 L1954.54,887.268 C1951.89,887.268 1949.9,889.254 1949.9,891.902 L1951.56,1090.83 C1951.56,1093.48 1953.54,1095.47 1956.19,1095.47 C1956.85,1095.47 1958.18,1095.14 1958.84,1094.81 C1987.3,1080.57 2017.09,1053.43 2017.09,1019.34 C2017.09,1002.13 2009.15,985.906 1989.62,985.906"/>
<path class="Accidental" d="M3082.45,1065.31 C3082.45,1091.46 3068.88,1105.36 3049.68,1120.59 L3050.68,1056.04 C3051.34,1053.06 3056.3,1043.46 3069.54,1043.46 C3081.46,1043.46 3082.45,1054.72 3082.45,1061.67 L3082.45,1065.31 M3078.48,1027.24 C3061.93,1027.24 3052.33,1037.51 3050.68,1039.49 L3052,933.241 C3052,930.593 3050.01,928.607 3047.37,928.607 L3043.39,928.607 C3040.75,928.607 3038.76,930.593 3038.76,933.241 L3040.41,1132.17 C3040.41,1134.82 3042.4,1136.81 3045.05,1136.81 C3045.71,1136.81 3047.03,1136.47 3047.7,1136.14 C3076.16,1121.91 3105.95,1094.77 3105.95,1060.68 C3105.95,1043.46 3098.01,1027.24 3078.48,1027.24"/>
<polyline class="LedgerLine" fill="none" stroke="#000000" stroke-width="13.23" stroke-linejoin="bevel" points="3099.29,541.148 3277.22,541.148" />
<polyline class="LedgerLine" fill="none" stroke="#000000" stroke-width="13.23" stroke-linejoin="bevel" points="5248.89,541.148 5426.83,541.148" />
<polyline class="LedgerLine" fill="none" stroke="#000000" stroke-width="13.23" stroke-linejoin="bevel" points="2010.43,541.148 2188.37,541.148" />
<polyline class="LedgerLine" fill="none" stroke="#000000" stroke-width="13.23" stroke-linejoin="bevel" points="935.626,541.148 1113.56,541.148" />
<path class="Note" d="M3191.12,409.556 C3181.85,409.556 3175.56,406.908 3171.26,398.633 C3166.95,390.358 3160.99,369.174 3160.66,360.237 C3160,351.3 3163.31,346.004 3171.26,343.356 C3175.23,342.032 3180.52,341.37 3185.49,341.37 C3194.76,341.37 3200.71,343.356 3205.35,352.293 C3209.98,361.23 3215.94,382.414 3215.94,390.689 C3215.94,406.908 3204.69,409.556 3191.12,409.556 M3188.47,330.778 C3142.79,330.778 3126.57,353.948 3126.57,375.463 C3126.57,396.978 3142.79,420.148 3188.47,420.148 C3234.15,420.148 3250.03,396.978 3250.03,375.463 C3250.03,353.948 3234.15,330.778 3188.47,330.778"/>
<path class="Note" d="M4425.01,533.572 C4415.75,533.572 4409.46,530.924 4405.15,522.649 C4400.85,514.374 4394.89,493.19 4394.56,484.253 C4393.9,475.316 4397.21,470.02 4405.15,467.372 C4409.13,466.048 4414.42,465.386 4419.39,465.386 C4428.65,465.386 4434.61,467.372 4439.25,476.309 C4443.88,485.246 4449.84,506.43 4449.84,514.705 C4449.84,530.924 4438.58,533.572 4425.01,533.572 M4422.37,454.794 C4376.69,454.794 4360.47,477.964 4360.47,499.479 C4360.47,520.994 4376.69,544.164 4422.37,544.164 C4468.04,544.164 4483.93,520.994 4483.93,499.479 C4483.93,477.964 4468.04,454.794 4422.37,454.794"/>
<path class="Note" d="M2102.26,368.217 C2092.99,368.217 2086.7,365.569 2082.4,357.294 C2078.09,349.019 2072.14,327.835 2071.81,318.898 C2071.14,309.961 2074.45,304.665 2082.4,302.017 C2086.37,300.693 2091.67,300.031 2096.63,300.031 C2105.9,300.031 2111.86,302.017 2116.49,310.954 C2121.12,319.891 2127.08,341.075 2127.08,349.35 C2127.08,365.569 2115.83,368.217 2102.26,368.217 M2099.61,289.439 C2053.93,289.439 2037.71,312.609 2037.71,334.124 C2037.71,355.639 2053.93,378.809 2099.61,378.809 C2145.29,378.809 2161.18,355.639 2161.18,334.124 C2161.18,312.609 2145.29,289.439 2099.61,289.439"/>
<path class="Note" d="M2102.26,574.91 C2092.99,574.91 2086.7,572.262 2082.4,563.987 C2078.09,555.712 2072.14,534.528 2071.81,525.591 C2071.14,516.654 2074.45,511.358 2082.4,508.71 C2086.37,507.386 2091.67,506.724 2096.63,506.724 C2105.9,506.724 2111.86,508.71 2116.49,517.647 C2121.12,526.584 2127.08,547.768 2127.08,556.043 C2127.08,572.262 2115.83,574.91 2102.26,574.91 M2099.61,496.132 C2053.93,496.132 2037.71,519.302 2037.71,540.817 C2037.71,562.332 2053.93,585.502 2099.61,585.502 C2145.29,585.502 2161.18,562.332 2161.18,540.817 C2161.18,519.302 2145.29,496.132 2099.61,496.132"/>
<path class="Note" d="M1027.45,574.91 C1018.19,574.91 1011.9,572.262 1007.59,563.987 C1003.29,555.712 997.333,534.528 997.002,525.591 C996.34,516.654 999.65,511.358 1007.59,508.71 C1011.57,507.386 1016.86,506.724 1021.83,506.724 C1031.1,506.724 1037.05,508.71 1041.69,517.647 C1046.32,526.584 1052.28,547.768 1052.28,556.043 C1052.28,572.262 1041.03,574.91 1027.45,574.91 M1024.81,496.132 C979.128,496.132 962.909,519.302 962.909,540.817 C962.909,562.332 979.128,585.502 1024.81,585.502 C1070.48,585.502 1086.37,562.332 1086.37,540.817 C1086.37,519.302 1070.48,496.132 1024.81,496.132"/>
<path class="Note" d="M5340.72,574.91 C5331.45,574.91 5325.17,572.262 5320.86,563.987 C5316.56,555.712 5310.6,534.528 5310.27,525.591 C5309.61,516.654 5312.92,511.358 5320.86,508.71 C5324.83,507.386 5330.13,506.724 5335.1,506.724 C5344.36,506.724 5350.32,508.71 5354.96,517.647 C5359.59,526.584 5365.55,547.768 5365.55,556.043 C5365.55,572.262 5354.29,574.91 5340.72,574.91 M5338.07,496.132 C5292.4,496.132 5276.18,519.302 5276.18,540.817 C5276.18,562.332 5292.4,585.502 5338.07,585.502 C5383.75,585.502 5399.64,562.332 5399.64,540.817 C5399.64,519.302 5383.75,496.132 5338.07,496.132"/>
<path class="Note" d="M5340.72,409.556 C5331.45,409.556 5325.17,406.908 5320.86,398.633 C5316.56,390.358 5310.6,369.174 5310.27,360.237 C5309.61,351.3 5312.92,346.004 5320.86,343.356 C5324.83,342.032 5330.13,341.37 5335.1,341.37 C5344.36,341.37 5350.32,343.356 5354.96,352.293 C5359.59,361.23 5365.55,382.414 5365.55,390.689 C5365.55,406.908 5354.29,409.556 5340.72,409.556 M5338.07,330.778 C5292.4,330.778 5276.18,353.948 5276.18,375.463 C5276.18,396.978 5292.4,420.148 5338.07,420.148 C5383.75,420.148 5399.64,396.978 5399.64,375.463 C5399.64,353.948 5383.75,330.778 5338.07,330.778"/>
<path class="Note" d="M3191.12,574.91 C3181.85,574.91 3175.56,572.262 3171.26,563.987 C3166.95,555.712 3160.99,534.528 3160.66,525.591 C3160,516.654 3163.31,511.358 3171.26,508.71 C3175.23,507.386 3180.52,506.724 3185.49,506.724 C3194.76,506.724 3200.71,508.71 3205.35,517.647 C3209.98,526.584 3215.94,547.768 3215.94,556.043 C3215.94,572.262 3204.69,574.91 3191.12,574.91 M3188.47,496.132 C3142.79,496.132 3126.57,519.302 3126.57,540.817 C3126.57,562.332 3142.79,585.502 3188.47,585.502 C3234.15,585.502 3250.03,562.332 3250.03,540.817 C3250.03,519.302 3234.15,496.132 3188.47,496.132"/>
<path class="Note" d="M3191.12,1112.31 C3181.85,1112.31 3175.56,1109.66 3171.26,1101.39 C3166.95,1093.11 3160.99,1071.93 3160.66,1062.99 C3160,1054.06 3163.31,1048.76 3171.26,1046.11 C3175.23,1044.79 3180.52,1044.13 3185.49,1044.13 C3194.76,1044.13 3200.71,1046.11 3205.35,1055.05 C3209.98,1063.99 3215.94,1085.17 3215.94,1093.44 C3215.94,1109.66 3204.69,1112.31 3191.12,1112.31 M3188.47,1033.53 C3142.79,1033.53 3126.57,1056.7 3126.57,1078.22 C3126.57,1099.73 3142.79,1122.9 3188.47,1122.9 C3234.15,1122.9 3250.03,1099.73 3250.03,1078.22 C3250.03,1056.7 3234.15,1033.53 3188.47,1033.53"/>
<path class="Note" d="M4309.91,1112.31 C4300.64,1112.31 4294.35,1109.66 4290.05,1101.39 C4285.75,1093.11 4279.79,1071.93 4279.46,1062.99 C4278.8,1054.06 4282.11,1048.76 4290.05,1046.11 C4294.02,1044.79 4299.32,1044.13 4304.28,1044.13 C4313.55,1044.13 4319.51,1046.11 4324.14,1055.05 C4328.78,1063.99 4334.74,1085.17 4334.74,1093.44 C4334.74,1109.66 4323.48,1112.31 4309.91,1112.31 M4307.26,1033.53 C4261.59,1033.53 4245.37,1056.7 4245.37,1078.22 C4245.37,1099.73 4261.59,1122.9 4307.26,1122.9 C4352.94,1122.9 4368.83,1099.73 4368.83,1078.22 C4368.83,1056.7 4352.94,1033.53 4307.26,1033.53"/>
<path class="Note" d="M4425.01,1070.97 C4415.75,1070.97 4409.46,1068.33 4405.15,1060.05 C4400.85,1051.78 4394.89,1030.59 4394.56,1021.65 C4393.9,1012.72 4397.21,1007.42 4405.15,1004.77 C4409.13,1003.45 4414.42,1002.79 4419.39,1002.79 C4428.65,1002.79 4434.61,1004.77 4439.25,1013.71 C4443.88,1022.65 4449.84,1043.83 4449.84,1052.11 C4449.84,1068.33 4438.58,1070.97 4425.01,1070.97 M4422.37,992.195 C4376.69,992.195 4360.47,1015.37 4360.47,1036.88 C4360.47,1058.4 4376.69,1081.57 4422.37,1081.57 C4468.04,1081.57 4483.93,1058.4 4483.93,1036.88 C4483.93,1015.37 4468.04,992.195 4422.37,992.195"/>
<path class="Note" d="M2102.26,1070.97 C2092.99,1070.97 2086.7,1068.33 2082.4,1060.05 C2078.09,1051.78 2072.14,1030.59 2071.81,1021.65 C2071.14,1012.72 2074.45,1007.42 2082.4,1004.77 C2086.37,1003.45 2091.67,1002.79 2096.63,1002.79 C2105.9,1002.79 2111.86,1004.77 2116.49,1013.71 C2121.12,1022.65 2127.08,1043.83 2127.08,1052.11 C2127.08,1068.33 2115.83,1070.97 2102.26,1070.97 M2099.61,992.195 C2053.93,992.195 2037.71,1015.37 2037.71,1036.88 C2037.71,1058.4 2053.93,1081.57 2099.61,1081.57 C2145.29,1081.57 2161.18,1058.4 2161.18,1036.88 C2161.18,1015.37 2145.29,992.195 2099.61,992.195"/>
<path class="Note" d="M1027.45,1029.63 C1018.19,1029.63 1011.9,1026.99 1007.59,1018.71 C1003.29,1010.44 997.333,989.253 997.002,980.316 C996.34,971.379 999.65,966.083 1007.59,963.435 C1011.57,962.111 1016.86,961.449 1021.83,961.449 C1031.1,961.449 1037.05,963.435 1041.69,972.372 C1046.32,981.309 1052.28,1002.49 1052.28,1010.77 C1052.28,1026.99 1041.03,1029.63 1027.45,1029.63 M1024.81,950.857 C979.128,950.857 962.909,974.027 962.909,995.542 C962.909,1017.06 979.128,1040.23 1024.81,1040.23 C1070.48,1040.23 1086.37,1017.06 1086.37,995.542 C1086.37,974.027 1070.48,950.857 1024.81,950.857"/>
<path class="Note" d="M5340.72,1153.65 C5331.45,1153.65 5325.17,1151 5320.86,1142.73 C5316.56,1134.45 5310.6,1113.27 5310.27,1104.33 C5309.61,1095.39 5312.92,1090.1 5320.86,1087.45 C5324.83,1086.13 5330.13,1085.46 5335.1,1085.46 C5344.36,1085.46 5350.32,1087.45 5354.96,1096.39 C5359.59,1105.32 5365.55,1126.51 5365.55,1134.78 C5365.55,1151 5354.29,1153.65 5340.72,1153.65 M5338.07,1074.87 C5292.4,1074.87 5276.18,1098.04 5276.18,1119.56 C5276.18,1141.07 5292.4,1164.24 5338.07,1164.24 C5383.75,1164.24 5399.64,1141.07 5399.64,1119.56 C5399.64,1098.04 5383.75,1074.87 5338.07,1074.87"/>
<path class="Clef" d="M327.679,443.98 C321.059,445.304 314.77,445.966 308.481,445.966 C261.148,445.966 220.766,412.866 220.766,362.885 C220.766,322.503 249.232,286.424 278.36,261.268 C283.987,256.303 289.283,251.669 294.248,246.704 C297.227,264.578 299.544,280.135 301.861,293.706 C271.74,302.643 251.218,334.419 251.218,365.533 C251.218,388.703 269.423,420.479 295.903,420.479 C298.551,420.479 301.53,419.155 301.53,416.176 C301.53,413.197 298.22,411.542 294.248,408.894 C281.339,400.95 274.057,392.344 274.057,376.125 C274.057,355.934 288.952,339.715 308.481,335.081 L327.679,443.98 M298.551,103.712 C301.53,90.472 316.756,55.717 333.968,55.717 C338.933,55.717 346.877,71.936 346.877,94.775 C346.877,129.199 321.39,155.017 298.551,177.525 C296.565,164.285 294.91,151.376 294.91,137.474 C294.91,125.227 295.903,113.973 298.551,103.712 M374.681,382.745 C374.681,406.246 365.082,430.409 341.581,440.008 C334.63,400.288 325.693,347.659 323.376,333.095 C353.166,333.095 374.681,353.286 374.681,382.745 M229.041,545.597 C229.041,567.443 245.922,596.24 290.607,596.24 C306.164,596.24 319.735,592.268 331.651,584.986 C349.525,572.408 354.159,550.562 354.159,529.709 C354.159,516.8 352.173,501.905 348.863,483.038 C347.87,476.418 345.884,466.488 343.898,453.579 C376.336,442.987 400.499,409.225 400.499,375.132 C400.499,325.151 365.082,291.389 316.756,291.389 C313.446,271.529 310.136,252 307.157,233.464 C342.243,196.723 366.406,155.348 366.406,102.719 C366.406,72.598 357.138,48.104 351.842,36.188 C343.898,19.307 334.299,7.722 328.341,7.722 C326.024,7.722 315.763,11.694 304.84,24.603 C283.656,49.759 277.698,92.127 277.698,119.931 C277.698,137.805 279.353,154.024 284.98,191.096 C284.649,191.427 267.437,208.97 260.486,214.597 C230.365,242.732 188.659,282.783 188.659,348.983 C188.659,410.88 242.612,459.537 304.178,459.537 C313.777,459.537 322.714,458.544 330.327,457.22 C336.616,488.996 340.257,512.166 340.257,529.709 C340.257,564.133 322.714,582.338 289.283,582.338 C281.339,582.338 274.388,580.683 273.726,580.683 C273.395,580.352 272.733,580.021 272.733,579.69 C272.733,579.028 273.395,578.697 274.388,578.366 C289.945,576.049 305.502,562.809 305.502,541.625 C305.502,523.751 291.931,504.884 267.106,504.884 C243.936,504.884 229.041,523.751 229.041,545.597"/>
<path class="Clef" d="M376.667,1037.51 C376.667,1046.77 383.949,1054.06 392.555,1054.06 C401.161,1054.06 408.443,1046.77 408.443,1037.51 C408.443,1028.24 401.161,1020.62 392.555,1020.62 C383.949,1020.62 376.667,1028.24 376.667,1037.51 M272.733,995.469 C247.577,995.469 227.386,1010.03 227.055,1010.03 C207.526,1024.27 194.948,1046.11 194.948,1070.27 C194.948,1094.44 208.85,1112.31 233.344,1112.31 C254.528,1112.31 271.078,1098.08 271.078,1076.23 C271.078,1057.37 254.528,1041.81 235.992,1041.81 C232.02,1041.81 228.379,1042.47 225.4,1043.46 C222.09,1044.79 216.463,1048.1 213.815,1050.41 C216.132,1035.85 226.062,1021.29 238.971,1014.34 C247.246,1009.7 257.838,1007.72 269.423,1007.72 C303.185,1007.72 319.735,1034.86 319.735,1090.47 C319.735,1133.5 292.262,1195.39 259.824,1224.52 C225.4,1255.97 192.962,1270.86 192.631,1270.86 C192.631,1270.86 188.659,1273.18 188.659,1277.15 C188.659,1277.81 188.99,1278.14 188.99,1278.8 C189.983,1282.11 192.962,1282.78 194.948,1282.78 C195.279,1282.78 196.272,1282.45 196.603,1282.45 C196.934,1282.45 234.668,1266.89 264.789,1243.39 C311.129,1209.96 363.427,1151.04 363.427,1090.13 C363.427,1032.54 332.313,995.469 272.733,995.469 M376.667,1119.26 C376.667,1128.53 383.949,1136.14 392.555,1136.14 C401.161,1136.14 408.443,1128.53 408.443,1119.26 C408.443,1109.99 401.161,1102.38 392.555,1102.38 C383.949,1102.38 376.667,1109.99 376.667,1119.26"/>
<path class="KeySig" d="M513.977,279.877 C513.977,306.026 500.406,319.928 481.208,335.154 L482.201,270.609 C482.863,267.63 487.828,258.031 501.068,258.031 C512.984,258.031 513.977,269.285 513.977,276.236 L513.977,279.877 M510.005,241.812 C493.455,241.812 483.856,252.073 482.201,254.059 L483.525,147.808 C483.525,145.16 481.539,143.174 478.891,143.174 L474.919,143.174 C472.271,143.174 470.285,145.16 470.285,147.808 L471.94,346.739 C471.94,349.387 473.926,351.373 476.574,351.373 C477.236,351.373 478.56,351.042 479.222,350.711 C507.688,336.478 537.478,309.336 537.478,275.243 C537.478,258.031 529.534,241.812 510.005,241.812"/>
<path class="KeySig" d="M605.915,155.861 C605.915,182.01 592.344,195.912 573.146,211.138 L574.139,146.593 C574.801,143.614 579.766,134.015 593.006,134.015 C604.922,134.015 605.915,145.269 605.915,152.22 L605.915,155.861 M601.943,117.796 C585.393,117.796 575.794,128.057 574.139,130.043 L575.463,23.7921 C575.463,21.1441 573.477,19.1581 570.829,19.1581 L566.857,19.1581 C564.209,19.1581 562.223,21.1441 562.223,23.7921 L563.878,222.723 C563.878,225.371 565.864,227.357 568.512,227.357 C569.174,227.357 570.498,227.026 571.16,226.695 C599.626,212.462 629.416,185.32 629.416,151.227 C629.416,134.015 621.472,117.796 601.943,117.796"/>
<path class="KeySig" d="M697.868,321.215 C697.868,347.364 684.297,361.266 665.099,376.492 L666.092,311.947 C666.754,308.968 671.719,299.369 684.959,299.369 C696.875,299.369 697.868,310.623 697.868,317.574 L697.868,321.215 M693.896,283.15 C677.346,283.15 667.747,293.411 666.092,295.397 L667.416,189.146 C667.416,186.498 665.43,184.512 662.782,184.512 L658.81,184.512 C656.162,184.512 654.176,186.498 654.176,189.146 L655.831,388.077 C655.831,390.725 657.817,392.711 660.465,392.711 C661.127,392.711 662.451,392.38 663.113,392.049 C691.579,377.816 721.369,350.674 721.369,316.581 C721.369,299.369 713.425,283.15 693.896,283.15"/>
<path class="KeySig" d="M513.977,1230.66 C513.977,1256.81 500.406,1270.72 481.208,1285.94 L482.201,1221.4 C482.863,1218.42 487.828,1208.82 501.068,1208.82 C512.984,1208.82 513.977,1220.07 513.977,1227.02 L513.977,1230.66 M510.005,1192.6 C493.455,1192.6 483.856,1202.86 482.201,1204.85 L483.525,1098.6 C483.525,1095.95 481.539,1093.96 478.891,1093.96 L474.919,1093.96 C472.271,1093.96 470.285,1095.95 470.285,1098.6 L471.94,1297.53 C471.94,1300.17 473.926,1302.16 476.574,1302.16 C477.236,1302.16 478.56,1301.83 479.222,1301.5 C507.688,1287.27 537.478,1260.12 537.478,1226.03 C537.478,1208.82 529.534,1192.6 510.005,1192.6"/>
<path class="KeySig" d="M605.915,1106.65 C605.915,1132.8 592.344,1146.7 573.146,1161.93 L574.139,1097.38 C574.801,1094.4 579.766,1084.8 593.006,1084.8 C604.922,1084.8 605.915,1096.06 605.915,1103.01 L605.915,1106.65 M601.943,1068.58 C585.393,1068.58 575.794,1078.84 574.139,1080.83 L575.463,974.579 C575.463,971.931 573.477,969.945 570.829,969.945 L566.857,969.945 C564.209,969.945 562.223,971.931 562.223,974.579 L563.878,1173.51 C563.878,1176.16 565.864,1178.14 568.512,1178.14 C569.174,1178.14 570.498,1177.81 571.16,1177.48 C599.626,1163.25 629.416,1136.11 629.416,1102.01 C629.416,1084.8 621.472,1068.58 601.943,1068.58"/>
<path class="KeySig" d="M697.868,1272 C697.868,1298.15 684.297,1312.05 665.099,1327.28 L666.092,1262.73 C666.754,1259.76 671.719,1250.16 684.959,1250.16 C696.875,1250.16 697.868,1261.41 697.868,1268.36 L697.868,1272 M693.896,1233.94 C677.346,1233.94 667.747,1244.2 666.092,1246.18 L667.416,1139.93 C667.416,1137.29 665.43,1135.3 662.782,1135.3 L658.81,1135.3 C656.162,1135.3 654.176,1137.29 654.176,1139.93 L655.831,1338.86 C655.831,1341.51 657.817,1343.5 660.465,1343.5 C661.127,1343.5 662.451,1343.17 663.113,1342.84 C691.579,1328.6 721.369,1301.46 721.369,1267.37 C721.369,1250.16 713.425,1233.94 693.896,1233.94"/>
<path class="Bracket" transform="matrix(3.625,0,0,3.65971,8,1326.58)" d="M2.979,-165.5 C8.937,-171.789 20.522,-184.698 20.522,-208.53 C20.522,-238.651 7.613,-269.103 7.613,-287.97 C7.613,-308.161 19.198,-327.028 19.86,-327.69 C19.86,-328.021 19.86,-328.021 19.86,-328.352 C19.86,-328.683 19.86,-329.014 19.529,-329.345 C19.198,-329.345 18.536,-329.345 18.205,-328.683 C17.874,-328.352 0,-310.478 0,-283.336 C0,-254.208 11.585,-233.686 11.585,-195.621 C11.585,-188.339 8.606,-176.754 0.331,-166.493 C0,-166.493 0,-165.831 0,-165.5 C-0.331,-165.169 0,-164.838 0.331,-164.507 C8.606,-154.246 11.585,-142.661 11.585,-135.379 C11.585,-97.314 0,-76.792 0,-47.664 C0,-20.853 17.874,-2.648 18.205,-2.317 C18.536,-1.655 19.198,-1.324 19.529,-1.655 C19.86,-1.986 20.191,-2.317 19.86,-2.648 C19.86,-2.648 19.86,-2.979 19.86,-3.31 C19.198,-3.972 7.613,-22.839 7.613,-43.03 C7.613,-61.897 20.522,-92.349 20.522,-122.47 C20.522,-146.633 8.937,-159.211 2.979,-165.5"/>
</svg>
