<?xml version="1.0" encoding="UTF-8" standalone="no"?>
<svg width="107.879mm" height="30.5229mm" viewBox="0 0 5096.66 1442.03"
 xmlns="http://www.w3.org/2000/svg" xmlns:xlink="http://www.w3.org/1999/xlink" version="1.2" baseProfile="full">
<title>REP4a-1.musicxml</title>
<desc>Generated by MuseScore Studio 4.7.5</desc>
<polyline class="StaffLines" fill="none" stroke="#000000" stroke-width="9.09" stroke-linejoin="bevel" points="111.77,218.336 5088.66,218.336" />
<polyline class="StaffLines" fill="none" stroke="#000000" stroke-width="9.09" stroke-linejoin="bevel" points="111.77,301.013 5088.66,301.013" />
<polyline class="StaffLines" fill="none" stroke="#000000" stroke-width="9.09" stroke-linejoin="bevel" points="111.77,383.691 5088.66,383.691" />
<polyline class="StaffLines" fill="none" stroke="#000000" stroke-width="9.09" stroke-linejoin="bevel" points="111.77,466.368 5088.66,466.368" />
<polyline class="StaffLines" fill="none" stroke="#000000" stroke-width="9.09" stroke-linejoin="bevel" points="111.77,549.045 5088.66,549.045" />
<polyline class="StaffLines" fill="none" stroke="#000000" stroke-width="9.09" stroke-linejoin="bevel" points="111.77,1086.45 5088.66,1086.45" />
<polyline class="StaffLines" fill="none" stroke="#000000" stroke-width="9.09" stroke-linejoin="bevel" points="111.77,1169.12 5088.66,1169.12" />
<polyline class="StaffLines" fill="none" stroke="#000000" stroke-width="9.09" stroke-linejoin="bevel" points="111.77,1251.8 5088.66,1251.8" />
<polyline class="StaffLines" fill="none" stroke="#000000" stroke-width="9.09" stroke-linejoin="bevel" points="111.77,1334.48 5088.66,1334.48" />
<polyline class="StaffLines" fill="none" stroke="#000000" stroke-width="9.09" stroke-linejoin="bevel" points="111.77,1417.16 5088.66,1417.16" />
<polyline class="BarLine" fill="none" stroke="#000000" stroke-width="14.88" stroke-linejoin="bevel" points="5005.15,213.789 5005.15,1086.45" />
<polyline class="BarLine" fill="none" stroke="#000000" stroke-width="45.47" stroke-linejoin="bevel" points="5065.92,213.789 5065.92,1086.45" />
<polyline class="BarLine" fill="none" stroke="#000000" stroke-width="14.88" stroke-linejoin="bevel" points="1856.81,213.789 1856.81,1086.45" />
<polyline class="BarLine" fill="none" stroke="#000000" stroke-width="14.88" stroke-linejoin="bevel" points="4006.41,213.789 4006.41,1086.45" />
<polyline class="BarLine" fill="none" stroke="#000000" stroke-width="14.88" stroke-linejoin="bevel" points="2931.61,213.789 2931.61,1086.45" />
<polyline class="BarLine" fill="none" stroke="#000000" stroke-width="14.88" stroke-linejoin="bevel" points="119.211,213.789 119.211,1086.45" />
<polyline class="BarLine" fill="none" stroke="#000000" stroke-width="14.88" stroke-linejoin="bevel" points="4006.41,1081.9 4006.41,1421.7" />
<polyline class="BarLine" fill="none" stroke="#000000" stroke-width="14.88" stroke-linejoin="bevel" points="5005.15,1081.9 5005.15,1421.7" />
<polyline class="BarLine" fill="none" stroke="#000000" stroke-width="45.47" stroke-linejoin="bevel" points="5065.92,1081.9 5065.92,1421.7" />
<polyline class="BarLine" fill="none" stroke="#000000" stroke-width="14.88" stroke-linejoin="bevel" points="2931.61,1081.9 2931.61,1421.7" />
<polyline class="BarLine" fill="none" stroke="#000000" stroke-width="14.88" stroke-linejoin="bevel" points="119.211,1081.9 119.211,1421.7" />
<polyline class="BarLine" fill="none" stroke="#000000" stroke-width="14.88" stroke-linejoin="bevel" points="1856.81,1081.9 1856.81,1421.7" />
<path class="Accidental" d="M1943.8,483.212 L1973.26,477.254 L1973.26,531.869 L1943.8,538.158 L1943.8,483.212 M1995.11,472.951 C1997.1,472.62 1998.75,470.303 1998.75,468.317 L1998.75,448.788 C1998.75,446.14 1996.76,444.154 1994.12,444.154 L1993.45,444.154 L1982.53,446.471 L1982.53,397.152 L1973.26,397.152 L1973.26,448.457 L1943.8,454.415 L1943.8,407.744 L1934.54,407.744 L1934.54,456.401 L1921.63,459.049 C1919.64,459.38 1917.99,461.697 1917.99,463.683 L1917.99,482.881 C1917.99,485.529 1919.97,487.515 1922.62,487.515 L1923.61,487.515 L1934.54,485.198 L1934.54,539.813 L1921.63,542.461 C1919.64,542.792 1917.99,545.109 1917.99,547.095 L1917.99,566.293 C1917.99,568.941 1919.97,570.927 1922.62,570.927 L1923.61,570.927 L1934.54,568.61 L1934.54,617.929 L1943.8,617.929 L1943.8,566.624 L1973.26,560.666 L1973.26,607.337 L1982.53,607.337 L1982.53,558.68 L1995.11,556.363 C1997.1,556.032 1998.75,553.715 1998.75,551.729 L1998.75,532.2 C1998.75,529.552 1996.76,527.566 1994.12,527.566 L1993.45,527.566 L1982.53,529.883 L1982.53,475.268 L1995.11,472.951 "/>
<path class="Accidental" d="M1951.4,1118.55 L1951.4,1064.27 L1989.8,1053.35 L1989.8,1107.96 L1951.4,1118.55 M1997.08,1025.87 C1996.42,1025.21 1995.42,1024.88 1994.43,1024.88 C1994.1,1024.88 1993.44,1025.21 1993.11,1025.21 L1951.4,1036.8 L1951.4,978.872 L1942.13,978.872 L1942.13,1142.72 C1942.13,1145.36 1944.12,1147.02 1946.77,1147.02 L1948.09,1147.02 L1989.8,1135.43 L1989.8,1193.36 L1998.73,1193.36 L1998.73,1029.51 C1998.73,1028.19 1998.07,1026.54 1997.08,1025.87"/>
<path class="Accidental" d="M4164.34,1118.55 L4164.34,1064.27 L4202.74,1053.35 L4202.74,1107.96 L4164.34,1118.55 M4210.02,1025.87 C4209.36,1025.21 4208.36,1024.88 4207.37,1024.88 C4207.04,1024.88 4206.38,1025.21 4206.05,1025.21 L4164.34,1036.8 L4164.34,978.872 L4155.07,978.872 L4155.07,1142.72 C4155.07,1145.36 4157.06,1147.02 4159.71,1147.02 L4161.03,1147.02 L4202.74,1135.43 L4202.74,1193.36 L4211.67,1193.36 L4211.67,1029.51 C4211.67,1028.19 4211.01,1026.54 4210.02,1025.87"/>
<polyline class="LedgerLine" fill="none" stroke="#000000" stroke-width="13.23" stroke-linejoin="bevel" points="892.79,631.722 1070.73,631.722" />
<polyline class="LedgerLine" fill="none" stroke="#000000" stroke-width="13.23" stroke-linejoin="bevel" points="3015.11,135.659 3193.05,135.659" />
<polyline class="LedgerLine" fill="none" stroke="#000000" stroke-width="13.23" stroke-linejoin="bevel" points="4205.02,52.982 4382.95,52.982" />
<polyline class="LedgerLine" fill="none" stroke="#000000" stroke-width="13.23" stroke-linejoin="bevel" points="4205.02,135.659 4382.95,135.659" />
<path class="Note" d="M2083.9,541.468 C2074.64,541.468 2068.35,538.82 2064.04,530.545 C2059.74,522.27 2053.78,501.086 2053.45,492.149 C2052.79,483.212 2056.1,477.916 2064.04,475.268 C2068.02,473.944 2073.31,473.282 2078.28,473.282 C2087.54,473.282 2093.5,475.268 2098.14,484.205 C2102.77,493.142 2108.73,514.326 2108.73,522.601 C2108.73,538.82 2097.47,541.468 2083.9,541.468 M2081.26,462.69 C2035.58,462.69 2019.36,485.86 2019.36,507.375 C2019.36,528.89 2035.58,552.06 2081.26,552.06 C2126.93,552.06 2142.82,528.89 2142.82,507.375 C2142.82,485.86 2126.93,462.69 2081.26,462.69"/>
<path class="Note" d="M4296.85,86.744 C4287.58,86.744 4281.29,84.096 4276.99,75.821 C4272.68,67.546 4266.73,46.362 4266.39,37.425 C4265.73,28.488 4269.04,23.192 4276.99,20.544 C4280.96,19.22 4286.25,18.558 4291.22,18.558 C4300.49,18.558 4306.45,20.544 4311.08,29.481 C4315.71,38.418 4321.67,59.602 4321.67,67.877 C4321.67,84.096 4310.42,86.744 4296.85,86.744 M4294.2,7.966 C4248.52,7.966 4232.3,31.136 4232.3,52.651 C4232.3,74.166 4248.52,97.336 4294.2,97.336 C4339.88,97.336 4355.76,74.166 4355.76,52.651 C4355.76,31.136 4339.88,7.966 4294.2,7.966"/>
<path class="Note" d="M4296.85,541.468 C4287.58,541.468 4281.29,538.82 4276.99,530.545 C4272.68,522.27 4266.73,501.086 4266.39,492.149 C4265.73,483.212 4269.04,477.916 4276.99,475.268 C4280.96,473.944 4286.25,473.282 4291.22,473.282 C4300.49,473.282 4306.45,475.268 4311.08,484.205 C4315.71,493.142 4321.67,514.326 4321.67,522.601 C4321.67,538.82 4310.42,541.468 4296.85,541.468 M4294.2,462.69 C4248.52,462.69 4232.3,485.86 4232.3,507.375 C4232.3,528.89 4248.52,552.06 4294.2,552.06 C4339.88,552.06 4355.76,528.89 4355.76,507.375 C4355.76,485.86 4339.88,462.69 4294.2,462.69"/>
<path class="Note" d="M4181.74,582.807 C4172.48,582.807 4166.19,580.159 4161.88,571.884 C4157.58,563.609 4151.62,542.425 4151.29,533.488 C4150.63,524.551 4153.94,519.255 4161.88,516.607 C4165.86,515.283 4171.15,514.621 4176.12,514.621 C4185.39,514.621 4191.34,516.607 4195.98,525.544 C4200.61,534.481 4206.57,555.665 4206.57,563.94 C4206.57,580.159 4195.32,582.807 4181.74,582.807 M4179.1,504.029 C4133.42,504.029 4117.2,527.199 4117.2,548.714 C4117.2,570.229 4133.42,593.399 4179.1,593.399 C4224.77,593.399 4240.66,570.229 4240.66,548.714 C4240.66,527.199 4224.77,504.029 4179.1,504.029"/>
<path class="Note" d="M2199.01,334.775 C2189.74,334.775 2183.45,332.127 2179.15,323.852 C2174.84,315.577 2168.89,294.393 2168.55,285.456 C2167.89,276.519 2171.2,271.223 2179.15,268.575 C2183.12,267.251 2188.41,266.589 2193.38,266.589 C2202.65,266.589 2208.61,268.575 2213.24,277.512 C2217.87,286.449 2223.83,307.633 2223.83,315.908 C2223.83,332.127 2212.58,334.775 2199.01,334.775 M2196.36,255.997 C2150.68,255.997 2134.46,279.167 2134.46,300.682 C2134.46,322.197 2150.68,345.367 2196.36,345.367 C2242.04,345.367 2257.92,322.197 2257.92,300.682 C2257.92,279.167 2242.04,255.997 2196.36,255.997"/>
<path class="Note" d="M2083.9,376.114 C2074.64,376.114 2068.35,373.466 2064.04,365.191 C2059.74,356.916 2053.78,335.732 2053.45,326.795 C2052.79,317.858 2056.1,312.562 2064.04,309.914 C2068.02,308.59 2073.31,307.928 2078.28,307.928 C2087.54,307.928 2093.5,309.914 2098.14,318.851 C2102.77,327.788 2108.73,348.972 2108.73,357.247 C2108.73,373.466 2097.47,376.114 2083.9,376.114 M2081.26,297.336 C2035.58,297.336 2019.36,320.506 2019.36,342.021 C2019.36,363.536 2035.58,386.706 2081.26,386.706 C2126.93,386.706 2142.82,363.536 2142.82,342.021 C2142.82,320.506 2126.93,297.336 2081.26,297.336"/>
<path class="Note" d="M2083.9,624.146 C2074.64,624.146 2068.35,621.498 2064.04,613.223 C2059.74,604.948 2053.78,583.764 2053.45,574.827 C2052.79,565.89 2056.1,560.594 2064.04,557.946 C2068.02,556.622 2073.31,555.96 2078.28,555.96 C2087.54,555.96 2093.5,557.946 2098.14,566.883 C2102.77,575.82 2108.73,597.004 2108.73,605.279 C2108.73,621.498 2097.47,624.146 2083.9,624.146 M2081.26,545.368 C2035.58,545.368 2019.36,568.538 2019.36,590.053 C2019.36,611.568 2035.58,634.738 2081.26,634.738 C2126.93,634.738 2142.82,611.568 2142.82,590.053 C2142.82,568.538 2126.93,545.368 2081.26,545.368"/>
<path class="Note" d="M3106.94,582.807 C3097.67,582.807 3091.38,580.159 3087.08,571.884 C3082.78,563.609 3076.82,542.425 3076.49,533.488 C3075.83,524.551 3079.14,519.255 3087.08,516.607 C3091.05,515.283 3096.35,514.621 3101.31,514.621 C3110.58,514.621 3116.54,516.607 3121.17,525.544 C3125.81,534.481 3131.77,555.665 3131.77,563.94 C3131.77,580.159 3120.51,582.807 3106.94,582.807 M3104.29,504.029 C3058.62,504.029 3042.4,527.199 3042.4,548.714 C3042.4,570.229 3058.62,593.399 3104.29,593.399 C3149.97,593.399 3165.86,570.229 3165.86,548.714 C3165.86,527.199 3149.97,504.029 3104.29,504.029"/>
<path class="Note" d="M3106.94,169.421 C3097.67,169.421 3091.38,166.773 3087.08,158.498 C3082.78,150.223 3076.82,129.039 3076.49,120.102 C3075.83,111.165 3079.14,105.869 3087.08,103.221 C3091.05,101.897 3096.35,101.235 3101.31,101.235 C3110.58,101.235 3116.54,103.221 3121.17,112.158 C3125.81,121.095 3131.77,142.279 3131.77,150.554 C3131.77,166.773 3120.51,169.421 3106.94,169.421 M3104.29,90.6432 C3058.62,90.6432 3042.4,113.813 3042.4,135.328 C3042.4,156.843 3058.62,180.013 3104.29,180.013 C3149.97,180.013 3165.86,156.843 3165.86,135.328 C3165.86,113.813 3149.97,90.6432 3104.29,90.6432"/>
<path class="Note" d="M984.618,582.807 C975.35,582.807 969.061,580.159 964.758,571.884 C960.455,563.609 954.497,542.425 954.166,533.488 C953.504,524.551 956.814,519.255 964.758,516.607 C968.73,515.283 974.026,514.621 978.991,514.621 C988.259,514.621 994.217,516.607 998.851,525.544 C1003.49,534.481 1009.44,555.665 1009.44,563.94 C1009.44,580.159 998.189,582.807 984.618,582.807 M981.97,504.029 C936.292,504.029 920.073,527.199 920.073,548.714 C920.073,570.229 936.292,593.399 981.97,593.399 C1027.65,593.399 1043.54,570.229 1043.54,548.714 C1043.54,527.199 1027.65,504.029 981.97,504.029"/>
<path class="Note" d="M984.618,665.484 C975.35,665.484 969.061,662.836 964.758,654.561 C960.455,646.286 954.497,625.102 954.166,616.165 C953.504,607.228 956.814,601.932 964.758,599.284 C968.73,597.96 974.026,597.298 978.991,597.298 C988.259,597.298 994.217,599.284 998.851,608.221 C1003.49,617.158 1009.44,638.342 1009.44,646.617 C1009.44,662.836 998.189,665.484 984.618,665.484 M981.97,586.706 C936.292,586.706 920.073,609.876 920.073,631.391 C920.073,652.906 936.292,676.076 981.97,676.076 C1027.65,676.076 1043.54,652.906 1043.54,631.391 C1043.54,609.876 1027.65,586.706 981.97,586.706"/>
<path class="Note" d="M984.618,293.437 C975.35,293.437 969.061,290.789 964.758,282.514 C960.455,274.239 954.497,253.055 954.166,244.118 C953.504,235.181 956.814,229.885 964.758,227.237 C968.73,225.913 974.026,225.251 978.991,225.251 C988.259,225.251 994.217,227.237 998.851,236.174 C1003.49,245.111 1009.44,266.295 1009.44,274.57 C1009.44,290.789 998.189,293.437 984.618,293.437 M981.97,214.659 C936.292,214.659 920.073,237.829 920.073,259.344 C920.073,280.859 936.292,304.029 981.97,304.029 C1027.65,304.029 1043.54,280.859 1043.54,259.344 C1043.54,237.829 1027.65,214.659 981.97,214.659"/>
<path class="Note" d="M1099.72,1202.89 C1090.45,1202.89 1084.16,1200.24 1079.86,1191.96 C1075.56,1183.69 1069.6,1162.5 1069.27,1153.57 C1068.61,1144.63 1071.92,1139.33 1079.86,1136.69 C1083.83,1135.36 1089.13,1134.7 1094.09,1134.7 C1103.36,1134.7 1109.32,1136.69 1113.95,1145.62 C1118.59,1154.56 1124.55,1175.74 1124.55,1184.02 C1124.55,1200.24 1113.29,1202.89 1099.72,1202.89 M1097.07,1124.11 C1051.39,1124.11 1035.18,1147.28 1035.18,1168.79 C1035.18,1190.31 1051.39,1213.48 1097.07,1213.48 C1142.75,1213.48 1158.64,1190.31 1158.64,1168.79 C1158.64,1147.28 1142.75,1124.11 1097.07,1124.11"/>
<path class="Note" d="M3106.94,1078.87 C3097.67,1078.87 3091.38,1076.22 3087.08,1067.95 C3082.78,1059.67 3076.82,1038.49 3076.49,1029.55 C3075.83,1020.61 3079.14,1015.32 3087.08,1012.67 C3091.05,1011.35 3096.35,1010.68 3101.31,1010.68 C3110.58,1010.68 3116.54,1012.67 3121.17,1021.61 C3125.81,1030.54 3131.77,1051.73 3131.77,1060 C3131.77,1076.22 3120.51,1078.87 3106.94,1078.87 M3104.29,1000.09 C3058.62,1000.09 3042.4,1023.26 3042.4,1044.78 C3042.4,1066.29 3058.62,1089.46 3104.29,1089.46 C3149.97,1089.46 3165.86,1066.29 3165.86,1044.78 C3165.86,1023.26 3149.97,1000.09 3104.29,1000.09"/>
<path class="Note" d="M3106.94,1161.55 C3097.67,1161.55 3091.38,1158.9 3087.08,1150.62 C3082.78,1142.35 3076.82,1121.17 3076.49,1112.23 C3075.83,1103.29 3079.14,1098 3087.08,1095.35 C3091.05,1094.02 3096.35,1093.36 3101.31,1093.36 C3110.58,1093.36 3116.54,1095.35 3121.17,1104.28 C3125.81,1113.22 3131.77,1134.41 3131.77,1142.68 C3131.77,1158.9 3120.51,1161.55 3106.94,1161.55 M3104.29,1082.77 C3058.62,1082.77 3042.4,1105.94 3042.4,1127.45 C3042.4,1148.97 3058.62,1172.14 3104.29,1172.14 C3149.97,1172.14 3165.86,1148.97 3165.86,1127.45 C3165.86,1105.94 3149.97,1082.77 3104.29,1082.77"/>
<path class="Note" d="M3106.94,1368.24 C3097.67,1368.24 3091.38,1365.59 3087.08,1357.32 C3082.78,1349.04 3076.82,1327.86 3076.49,1318.92 C3075.83,1309.98 3079.14,1304.69 3087.08,1302.04 C3091.05,1300.72 3096.35,1300.05 3101.31,1300.05 C3110.58,1300.05 3116.54,1302.04 3121.17,1310.98 C3125.81,1319.91 3131.77,1341.1 3131.77,1349.37 C3131.77,1365.59 3120.51,1368.24 3106.94,1368.24 M3104.29,1289.46 C3058.62,1289.46 3042.4,1312.63 3042.4,1334.15 C3042.4,1355.66 3058.62,1378.83 3104.29,1378.83 C3149.97,1378.83 3165.86,1355.66 3165.86,1334.15 C3165.86,1312.63 3149.97,1289.46 3104.29,1289.46"/>
<path class="Note" d="M984.618,1244.22 C975.35,1244.22 969.061,1241.58 964.758,1233.3 C960.455,1225.03 954.497,1203.84 954.166,1194.91 C953.504,1185.97 956.814,1180.67 964.758,1178.02 C968.73,1176.7 974.026,1176.04 978.991,1176.04 C988.259,1176.04 994.217,1178.02 998.851,1186.96 C1003.49,1195.9 1009.44,1217.08 1009.44,1225.36 C1009.44,1241.58 998.189,1244.22 984.618,1244.22 M981.97,1165.45 C936.292,1165.45 920.073,1188.62 920.073,1210.13 C920.073,1231.65 936.292,1254.82 981.97,1254.82 C1027.65,1254.82 1043.54,1231.65 1043.54,1210.13 C1043.54,1188.62 1027.65,1165.45 981.97,1165.45"/>
<path class="Note" d="M4296.85,1326.9 C4287.58,1326.9 4281.29,1324.25 4276.99,1315.98 C4272.68,1307.7 4266.73,1286.52 4266.39,1277.58 C4265.73,1268.65 4269.04,1263.35 4276.99,1260.7 C4280.96,1259.38 4286.25,1258.72 4291.22,1258.72 C4300.49,1258.72 4306.45,1260.7 4311.08,1269.64 C4315.71,1278.58 4321.67,1299.76 4321.67,1308.03 C4321.67,1324.25 4310.42,1326.9 4296.85,1326.9 M4294.2,1248.12 C4248.52,1248.12 4232.3,1271.29 4232.3,1292.81 C4232.3,1314.32 4248.52,1337.49 4294.2,1337.49 C4339.88,1337.49 4355.76,1314.32 4355.76,1292.81 C4355.76,1271.29 4339.88,1248.12 4294.2,1248.12"/>
<path class="Note" d="M4296.85,1120.21 C4287.58,1120.21 4281.29,1117.56 4276.99,1109.29 C4272.68,1101.01 4266.73,1079.83 4266.39,1070.89 C4265.73,1061.95 4269.04,1056.66 4276.99,1054.01 C4280.96,1052.68 4286.25,1052.02 4291.22,1052.02 C4300.49,1052.02 4306.45,1054.01 4311.08,1062.95 C4315.71,1071.88 4321.67,1093.07 4321.67,1101.34 C4321.67,1117.56 4310.42,1120.21 4296.85,1120.21 M4294.2,1041.43 C4248.52,1041.43 4232.3,1064.6 4232.3,1086.12 C4232.3,1107.63 4248.52,1130.8 4294.2,1130.8 C4339.88,1130.8 4355.76,1107.63 4355.76,1086.12 C4355.76,1064.6 4339.88,1041.43 4294.2,1041.43"/>
<path class="Note" d="M984.618,1409.58 C975.35,1409.58 969.061,1406.93 964.758,1398.66 C960.455,1390.38 954.497,1369.2 954.166,1360.26 C953.504,1351.32 956.814,1346.03 964.758,1343.38 C968.73,1342.05 974.026,1341.39 978.991,1341.39 C988.259,1341.39 994.217,1343.38 998.851,1352.32 C1003.49,1361.25 1009.44,1382.44 1009.44,1390.71 C1009.44,1406.93 998.189,1409.58 984.618,1409.58 M981.97,1330.8 C936.292,1330.8 920.073,1353.97 920.073,1375.49 C920.073,1397 936.292,1420.17 981.97,1420.17 C1027.65,1420.17 1043.54,1397 1043.54,1375.49 C1043.54,1353.97 1027.65,1330.8 981.97,1330.8"/>
<path class="Note" d="M2083.9,1120.21 C2074.64,1120.21 2068.35,1117.56 2064.04,1109.29 C2059.74,1101.01 2053.78,1079.83 2053.45,1070.89 C2052.79,1061.95 2056.1,1056.66 2064.04,1054.01 C2068.02,1052.68 2073.31,1052.02 2078.28,1052.02 C2087.54,1052.02 2093.5,1054.01 2098.14,1062.95 C2102.77,1071.88 2108.73,1093.07 2108.73,1101.34 C2108.73,1117.56 2097.47,1120.21 2083.9,1120.21 M2081.26,1041.43 C2035.58,1041.43 2019.36,1064.6 2019.36,1086.12 C2019.36,1107.63 2035.58,1130.8 2081.26,1130.8 C2126.93,1130.8 2142.82,1107.63 2142.82,1086.12 C2142.82,1064.6 2126.93,1041.43 2081.26,1041.43"/>
<path class="Clef" d="M327.679,534.554 C321.059,535.878 314.77,536.54 308.481,536.54 C261.148,536.54 220.766,503.44 220.766,453.459 C220.766,413.077 249.232,376.998 278.36,351.842 C283.987,346.877 289.283,342.243 294.248,337.278 C297.227,355.152 299.544,370.709 301.861,384.28 C271.74,393.217 251.218,424.993 251.218,456.107 C251.218,479.277 269.423,511.053 295.903,511.053 C298.551,511.053 301.53,509.729 301.53,506.75 C301.53,503.771 298.22,502.116 294.248,499.468 C281.339,491.524 274.057,482.918 274.057,466.699 C274.057,446.508 288.952,430.289 308.481,425.655 L327.679,534.554 M298.551,194.286 C301.53,181.046 316.756,146.291 333.968,146.291 C338.933,146.291 346.877,162.51 346.877,185.349 C346.877,219.773 321.39,245.591 298.551,268.099 C296.565,254.859 294.91,241.95 294.91,228.048 C294.91,215.801 295.903,204.547 298.551,194.286 M374.681,473.319 C374.681,496.82 365.082,520.983 341.581,530.582 C334.63,490.862 325.693,438.233 323.376,423.669 C353.166,423.669 374.681,443.86 374.681,473.319 M229.041,636.171 C229.041,658.017 245.922,686.814 290.607,686.814 C306.164,686.814 319.735,682.842 331.651,675.56 C349.525,662.982 354.159,641.136 354.159,620.283 C354.159,607.374 352.173,592.479 348.863,573.612 C347.87,566.992 345.884,557.062 343.898,544.153 C376.336,533.561 400.499,499.799 400.499,465.706 C400.499,415.725 365.082,381.963 316.756,381.963 C313.446,362.103 310.136,342.574 307.157,324.038 C342.243,287.297 366.406,245.922 366.406,193.293 C366.406,163.172 357.138,138.678 351.842,126.762 C343.898,109.881 334.299,98.2958 328.341,98.2958 C326.024,98.2958 315.763,102.268 304.84,115.177 C283.656,140.333 277.698,182.701 277.698,210.505 C277.698,228.379 279.353,244.598 284.98,281.67 C284.649,282.001 267.437,299.544 260.486,305.171 C230.365,333.306 188.659,373.357 188.659,439.557 C188.659,501.454 242.612,550.111 304.178,550.111 C313.777,550.111 322.714,549.118 330.327,547.794 C336.616,579.57 340.257,602.74 340.257,620.283 C340.257,654.707 322.714,672.912 289.283,672.912 C281.339,672.912 274.388,671.257 273.726,671.257 C273.395,670.926 272.733,670.595 272.733,670.264 C272.733,669.602 273.395,669.271 274.388,668.94 C289.945,666.623 305.502,653.383 305.502,632.199 C305.502,614.325 291.931,595.458 267.106,595.458 C243.936,595.458 229.041,614.325 229.041,636.171"/>
<path class="Clef" d="M376.667,1128.08 C376.667,1137.35 383.949,1144.63 392.555,1144.63 C401.161,1144.63 408.443,1137.35 408.443,1128.08 C408.443,1118.81 401.161,1111.2 392.555,1111.2 C383.949,1111.2 376.667,1118.81 376.667,1128.08 M272.733,1086.04 C247.577,1086.04 227.386,1100.61 227.055,1100.61 C207.526,1114.84 194.948,1136.69 194.948,1160.85 C194.948,1185.01 208.85,1202.89 233.344,1202.89 C254.528,1202.89 271.078,1188.65 271.078,1166.81 C271.078,1147.94 254.528,1132.38 235.992,1132.38 C232.02,1132.38 228.379,1133.04 225.4,1134.04 C222.09,1135.36 216.463,1138.67 213.815,1140.99 C216.132,1126.42 226.062,1111.86 238.971,1104.91 C247.246,1100.28 257.838,1098.29 269.423,1098.29 C303.185,1098.29 319.735,1125.43 319.735,1181.04 C319.735,1224.07 292.262,1285.97 259.824,1315.09 C225.4,1346.54 192.962,1361.43 192.631,1361.43 C192.631,1361.43 188.659,1363.75 188.659,1367.72 C188.659,1368.39 188.99,1368.72 188.99,1369.38 C189.983,1372.69 192.962,1373.35 194.948,1373.35 C195.279,1373.35 196.272,1373.02 196.603,1373.02 C196.934,1373.02 234.668,1357.46 264.789,1333.96 C311.129,1300.53 363.427,1241.61 363.427,1180.71 C363.427,1123.11 332.313,1086.04 272.733,1086.04 M376.667,1209.84 C376.667,1219.1 383.949,1226.72 392.555,1226.72 C401.161,1226.72 408.443,1219.1 408.443,1209.84 C408.443,1200.57 401.161,1192.96 392.555,1192.96 C383.949,1192.96 376.667,1200.57 376.667,1209.84"/>
<path class="KeySig" d="M513.977,370.451 C513.977,396.6 500.406,410.502 481.208,425.728 L482.201,361.183 C482.863,358.204 487.828,348.605 501.068,348.605 C512.984,348.605 513.977,359.859 513.977,366.81 L513.977,370.451 M510.005,332.386 C493.455,332.386 483.856,342.647 482.201,344.633 L483.525,238.382 C483.525,235.734 481.539,233.748 478.891,233.748 L474.919,233.748 C472.271,233.748 470.285,235.734 470.285,238.382 L471.94,437.313 C471.94,439.961 473.926,441.947 476.574,441.947 C477.236,441.947 478.56,441.616 479.222,441.285 C507.688,427.052 537.478,399.91 537.478,365.817 C537.478,348.605 529.534,332.386 510.005,332.386"/>
<path class="KeySig" d="M605.915,246.435 C605.915,272.584 592.344,286.486 573.146,301.712 L574.139,237.167 C574.801,234.188 579.766,224.589 593.006,224.589 C604.922,224.589 605.915,235.843 605.915,242.794 L605.915,246.435 M601.943,208.37 C585.393,208.37 575.794,218.631 574.139,220.617 L575.463,114.366 C575.463,111.718 573.477,109.732 570.829,109.732 L566.857,109.732 C564.209,109.732 562.223,111.718 562.223,114.366 L563.878,313.297 C563.878,315.945 565.864,317.931 568.512,317.931 C569.174,317.931 570.498,317.6 571.16,317.269 C599.626,303.036 629.416,275.894 629.416,241.801 C629.416,224.589 621.472,208.37 601.943,208.37"/>
<path class="KeySig" d="M697.868,411.789 C697.868,437.938 684.297,451.84 665.099,467.066 L666.092,402.521 C666.754,399.542 671.719,389.943 684.959,389.943 C696.875,389.943 697.868,401.197 697.868,408.148 L697.868,411.789 M693.896,373.724 C677.346,373.724 667.747,383.985 666.092,385.971 L667.416,279.72 C667.416,277.072 665.43,275.086 662.782,275.086 L658.81,275.086 C656.162,275.086 654.176,277.072 654.176,279.72 L655.831,478.651 C655.831,481.299 657.817,483.285 660.465,483.285 C661.127,483.285 662.451,482.954 663.113,482.623 C691.579,468.39 721.369,441.248 721.369,407.155 C721.369,389.943 713.425,373.724 693.896,373.724"/>
<path class="KeySig" d="M513.977,1321.24 C513.977,1347.39 500.406,1361.29 481.208,1376.52 L482.201,1311.97 C482.863,1308.99 487.828,1299.39 501.068,1299.39 C512.984,1299.39 513.977,1310.65 513.977,1317.6 L513.977,1321.24 M510.005,1283.17 C493.455,1283.17 483.856,1293.43 482.201,1295.42 L483.525,1189.17 C483.525,1186.52 481.539,1184.54 478.891,1184.54 L474.919,1184.54 C472.271,1184.54 470.285,1186.52 470.285,1189.17 L471.94,1388.1 C471.94,1390.75 473.926,1392.73 476.574,1392.73 C477.236,1392.73 478.56,1392.4 479.222,1392.07 C507.688,1377.84 537.478,1350.7 537.478,1316.6 C537.478,1299.39 529.534,1283.17 510.005,1283.17"/>
<path class="KeySig" d="M605.915,1197.22 C605.915,1223.37 592.344,1237.27 573.146,1252.5 L574.139,1187.95 C574.801,1184.98 579.766,1175.38 593.006,1175.38 C604.922,1175.38 605.915,1186.63 605.915,1193.58 L605.915,1197.22 M601.943,1159.16 C585.393,1159.16 575.794,1169.42 574.139,1171.4 L575.463,1065.15 C575.463,1062.51 573.477,1060.52 570.829,1060.52 L566.857,1060.52 C564.209,1060.52 562.223,1062.51 562.223,1065.15 L563.878,1264.08 C563.878,1266.73 565.864,1268.72 568.512,1268.72 C569.174,1268.72 570.498,1268.39 571.16,1268.06 C599.626,1253.82 629.416,1226.68 629.416,1192.59 C629.416,1175.38 621.472,1159.16 601.943,1159.16"/>
<path class="KeySig" d="M697.868,1362.58 C697.868,1388.73 684.297,1402.63 665.099,1417.85 L666.092,1353.31 C666.754,1350.33 671.719,1340.73 684.959,1340.73 C696.875,1340.73 697.868,1351.98 697.868,1358.94 L697.868,1362.58 M693.896,1324.51 C677.346,1324.51 667.747,1334.77 666.092,1336.76 L667.416,1230.51 C667.416,1227.86 665.43,1225.87 662.782,1225.87 L658.81,1225.87 C656.162,1225.87 654.176,1227.86 654.176,1230.51 L655.831,1429.44 C655.831,1432.09 657.817,1434.07 660.465,1434.07 C661.127,1434.07 662.451,1433.74 663.113,1433.41 C691.579,1419.18 721.369,1392.04 721.369,1357.94 C721.369,1340.73 713.425,1324.51 693.896,1324.51"/>
<path class="Bracket" transform="matrix(3.625,0,0,3.65971,8,1417.16)" d="M2.979,-165.5 C8.937,-171.789 20.522,-184.698 20.522,-208.53 C20.522,-238.651 7.613,-269.103 7.613,-287.97 C7.613,-308.161 19.198,-327.028 19.86,-327.69 C19.86,-328.021 19.86,-328.021 19.86,-328.352 C19.86,-328.683 19.86,-329.014 19.529,-329.345 C19.198,-329.345 18.536,-329.345 18.205,-328.683 C17.874,-328.352 0,-310.478 0,-283.336 C0,-254.208 11.585,-233.686 11.585,-195.621 C11.585,-188.339 8.606,-176.754 0.331,-166.493 C0,-166.493 0,-165.831 0,-165.5 C-0.331,-165.169 0,-164.838 0.331,-164.507 C8.606,-154.246 11.585,-142.661 11.585,-135.379 C11.585,-97.314 0,-76.792 0,-47.664 C0,-20.853 17.874,-2.648 18.205,-2.317 C18.536,-1.655 19.198,-1.324 19.529,-1.655 C19.86,-1.986 20.191,-2.317 19.86,-2.648 C19.86,-2.648 19.86,-2.979 19.86,-3.31 C19.198,-3.972 7.613,-22.839 7.613,-43.03 C7.613,-61.897 20.522,-92.349 20.522,-122.47 C20.522,-146.633 8.937,-159.211 2.979,-165.5"/>
</svg>
