<?xml version="1.0" encoding="UTF-8" standalone="no"?>
<svg width="85.3497mm" height="35.4789mm" viewBox="0 0 4032.27 1676.17"
 xmlns="http://www.w3.org/2000/svg" xmlns:xlink="http://www.w3.org/1999/xlink" version="1.2" baseProfile="full">
<title>TRR3d-1.musicxml</title>
<desc>Generated by MuseScore Studio 4.7.5</desc>
<polyline class="StaffLines" fill="none" stroke="#000000" stroke-width="9.09" stroke-linejoin="bevel" points="111.77,383.691 4024.27,383.691" />
<polyline class="StaffLines" fill="none" stroke="#000000" stroke-width="9.09" stroke-linejoin="bevel" points="111.77,466.368 4024.27,466.368" />
<polyline class="StaffLines" fill="none" stroke="#000000" stroke-width="9.09" stroke-linejoin="bevel" points="111.77,549.045 4024.27,549.045" />
<polyline class="StaffLines" fill="none" stroke="#000000" stroke-width="9.09" stroke-linejoin="bevel" points="111.77,631.722 4024.27,631.722" />
<polyline class="StaffLines" fill="none" stroke="#000000" stroke-width="9.09" stroke-linejoin="bevel" points="111.77,714.399 4024.27,714.399" />
<polyline class="StaffLines" fill="none" stroke="#000000" stroke-width="9.09" stroke-linejoin="bevel" points="111.77,1251.8 4024.27,1251.8" />
<polyline class="StaffLines" fill="none" stroke="#000000" stroke-width="9.09" stroke-linejoin="bevel" points="111.77,1334.48 4024.27,1334.48" />
<polyline class="StaffLines" fill="none" stroke="#000000" stroke-width="9.09" stroke-linejoin="bevel" points="111.77,1417.16 4024.27,1417.16" />
<polyline class="StaffLines" fill="none" stroke="#000000" stroke-width="9.09" stroke-linejoin="bevel" points="111.77,1499.83 4024.27,1499.83" />
<polyline class="StaffLines" fill="none" stroke="#000000" stroke-width="9.09" stroke-linejoin="bevel" points="111.77,1582.51 4024.27,1582.51" />
<polyline class="BarLine" fill="none" stroke="#000000" stroke-width="14.88" stroke-linejoin="bevel" points="3940.77,379.143 3940.77,1251.8" />
<polyline class="BarLine" fill="none" stroke="#000000" stroke-width="45.47" stroke-linejoin="bevel" points="4001.53,379.143 4001.53,1251.8" />
<polyline class="BarLine" fill="none" stroke="#000000" stroke-width="14.88" stroke-linejoin="bevel" points="1867.22,379.143 1867.22,1251.8" />
<polyline class="BarLine" fill="none" stroke="#000000" stroke-width="14.88" stroke-linejoin="bevel" points="119.211,379.143 119.211,1251.8" />
<polyline class="BarLine" fill="none" stroke="#000000" stroke-width="14.88" stroke-linejoin="bevel" points="2942.03,379.143 2942.03,1251.8" />
<polyline class="BarLine" fill="none" stroke="#000000" stroke-width="14.88" stroke-linejoin="bevel" points="3940.77,1247.25 3940.77,1587.06" />
<polyline class="BarLine" fill="none" stroke="#000000" stroke-width="45.47" stroke-linejoin="bevel" points="4001.53,1247.25 4001.53,1587.06" />
<polyline class="BarLine" fill="none" stroke="#000000" stroke-width="14.88" stroke-linejoin="bevel" points="119.211,1247.25 119.211,1587.06" />
<polyline class="BarLine" fill="none" stroke="#000000" stroke-width="14.88" stroke-linejoin="bevel" points="1867.22,1247.25 1867.22,1587.06" />
<polyline class="BarLine" fill="none" stroke="#000000" stroke-width="14.88" stroke-linejoin="bevel" points="2942.03,1247.25 2942.03,1587.06" />
<path class="Accidental" d="M948.365,1242.57 L948.365,1188.29 L986.761,1177.36 L986.761,1231.98 L948.365,1242.57 M994.043,1149.89 C993.381,1149.23 992.388,1148.9 991.395,1148.9 C991.064,1148.9 990.402,1149.23 990.071,1149.23 L948.365,1160.81 L948.365,1102.89 L939.097,1102.89 L939.097,1266.73 C939.097,1269.38 941.083,1271.04 943.731,1271.04 L945.055,1271.04 L986.761,1259.45 L986.761,1317.38 L995.698,1317.38 L995.698,1153.53 C995.698,1152.21 995.036,1150.55 994.043,1149.89"/>
<path class="Accidental" d="M1937.67,1283.91 L1937.67,1229.62 L1976.07,1218.7 L1976.07,1273.32 L1937.67,1283.91 M1983.35,1191.23 C1982.69,1190.57 1981.7,1190.23 1980.7,1190.23 C1980.37,1190.23 1979.71,1190.57 1979.38,1190.57 L1937.67,1202.15 L1937.67,1144.23 L1928.41,1144.23 L1928.41,1308.07 C1928.41,1310.72 1930.39,1312.37 1933.04,1312.37 L1934.36,1312.37 L1976.07,1300.79 L1976.07,1358.71 L1985.01,1358.71 L1985.01,1194.87 C1985.01,1193.54 1984.34,1191.89 1983.35,1191.23"/>
<path class="Accidental" d="M862.87,1283.91 L862.87,1229.62 L901.266,1218.7 L901.266,1273.32 L862.87,1283.91 M908.548,1191.23 C907.886,1190.57 906.893,1190.23 905.9,1190.23 C905.569,1190.23 904.907,1190.57 904.576,1190.57 L862.87,1202.15 L862.87,1144.23 L853.602,1144.23 L853.602,1308.07 C853.602,1310.72 855.588,1312.37 858.236,1312.37 L859.56,1312.37 L901.266,1300.79 L901.266,1358.71 L910.203,1358.71 L910.203,1194.87 C910.203,1193.54 909.541,1191.89 908.548,1191.23"/>
<polyline class="LedgerLine" fill="none" stroke="#000000" stroke-width="13.23" stroke-linejoin="bevel" points="3025.53,301.013 3203.47,301.013" />
<polyline class="LedgerLine" fill="none" stroke="#000000" stroke-width="13.23" stroke-linejoin="bevel" points="1104.14,52.982 1282.08,52.982" />
<polyline class="LedgerLine" fill="none" stroke="#000000" stroke-width="13.23" stroke-linejoin="bevel" points="1104.14,135.659 1282.08,135.659" />
<polyline class="LedgerLine" fill="none" stroke="#000000" stroke-width="13.23" stroke-linejoin="bevel" points="1104.14,218.336 1282.08,218.336" />
<polyline class="LedgerLine" fill="none" stroke="#000000" stroke-width="13.23" stroke-linejoin="bevel" points="1978.35,52.982 2156.29,52.982" />
<polyline class="LedgerLine" fill="none" stroke="#000000" stroke-width="13.23" stroke-linejoin="bevel" points="1978.35,135.659 2156.29,135.659" />
<polyline class="LedgerLine" fill="none" stroke="#000000" stroke-width="13.23" stroke-linejoin="bevel" points="1978.35,218.336 2156.29,218.336" />
<polyline class="LedgerLine" fill="none" stroke="#000000" stroke-width="13.23" stroke-linejoin="bevel" points="1978.35,301.013 2156.29,301.013" />
<polyline class="LedgerLine" fill="none" stroke="#000000" stroke-width="13.23" stroke-linejoin="bevel" points="1104.14,301.013 1282.08,301.013" />
<path class="Note" d="M3117.36,293.437 C3108.09,293.437 3101.8,290.789 3097.5,282.514 C3093.2,274.239 3087.24,253.055 3086.91,244.118 C3086.25,235.181 3089.56,229.885 3097.5,227.237 C3101.47,225.913 3106.77,225.251 3111.73,225.251 C3121,225.251 3126.96,227.237 3131.59,236.174 C3136.23,245.111 3142.18,266.295 3142.18,274.57 C3142.18,290.789 3130.93,293.437 3117.36,293.437 M3114.71,214.659 C3069.03,214.659 3052.81,237.829 3052.81,259.344 C3052.81,280.859 3069.03,304.029 3114.71,304.029 C3160.39,304.029 3176.28,280.859 3176.28,259.344 C3176.28,237.829 3160.39,214.659 3114.71,214.659"/>
<path class="Note" d="M3117.36,665.484 C3108.09,665.484 3101.8,662.836 3097.5,654.561 C3093.2,646.286 3087.24,625.102 3086.91,616.165 C3086.25,607.228 3089.56,601.932 3097.5,599.284 C3101.47,597.96 3106.77,597.298 3111.73,597.298 C3121,597.298 3126.96,599.284 3131.59,608.221 C3136.23,617.158 3142.18,638.342 3142.18,646.617 C3142.18,662.836 3130.93,665.484 3117.36,665.484 M3114.71,586.706 C3069.03,586.706 3052.81,609.876 3052.81,631.391 C3052.81,652.906 3069.03,676.076 3114.71,676.076 C3160.39,676.076 3176.28,652.906 3176.28,631.391 C3176.28,609.876 3160.39,586.706 3114.71,586.706"/>
<path class="Note" d="M3117.36,789.5 C3108.09,789.5 3101.8,786.852 3097.5,778.577 C3093.2,770.302 3087.24,749.118 3086.91,740.181 C3086.25,731.244 3089.56,725.948 3097.5,723.3 C3101.47,721.976 3106.77,721.314 3111.73,721.314 C3121,721.314 3126.96,723.3 3131.59,732.237 C3136.23,741.174 3142.18,762.358 3142.18,770.633 C3142.18,786.852 3130.93,789.5 3117.36,789.5 M3114.71,710.722 C3069.03,710.722 3052.81,733.892 3052.81,755.407 C3052.81,776.922 3069.03,800.092 3114.71,800.092 C3160.39,800.092 3176.28,776.922 3176.28,755.407 C3176.28,733.892 3160.39,710.722 3114.71,710.722"/>
<path class="Note" d="M1195.97,86.744 C1186.7,86.744 1180.41,84.096 1176.11,75.821 C1171.81,67.546 1165.85,46.362 1165.52,37.425 C1164.86,28.488 1168.17,23.192 1176.11,20.544 C1180.08,19.22 1185.38,18.558 1190.34,18.558 C1199.61,18.558 1205.57,20.544 1210.2,29.481 C1214.84,38.418 1220.8,59.602 1220.8,67.877 C1220.8,84.096 1209.54,86.744 1195.97,86.744 M1193.32,7.966 C1147.65,7.966 1131.43,31.136 1131.43,52.651 C1131.43,74.166 1147.65,97.336 1193.32,97.336 C1239,97.336 1254.89,74.166 1254.89,52.651 C1254.89,31.136 1239,7.966 1193.32,7.966"/>
<path class="Note" d="M2070.18,789.5 C2060.91,789.5 2054.62,786.852 2050.32,778.577 C2046.01,770.302 2040.06,749.118 2039.73,740.181 C2039.06,731.244 2042.37,725.948 2050.32,723.3 C2054.29,721.976 2059.59,721.314 2064.55,721.314 C2073.82,721.314 2079.78,723.3 2084.41,732.237 C2089.04,741.174 2095,762.358 2095,770.633 C2095,786.852 2083.75,789.5 2070.18,789.5 M2067.53,710.722 C2021.85,710.722 2005.63,733.892 2005.63,755.407 C2005.63,776.922 2021.85,800.092 2067.53,800.092 C2113.21,800.092 2129.1,776.922 2129.1,755.407 C2129.1,733.892 2113.21,710.722 2067.53,710.722"/>
<path class="Note" d="M2070.18,86.744 C2060.91,86.744 2054.62,84.096 2050.32,75.821 C2046.01,67.546 2040.06,46.362 2039.73,37.425 C2039.06,28.488 2042.37,23.192 2050.32,20.544 C2054.29,19.22 2059.59,18.558 2064.55,18.558 C2073.82,18.558 2079.78,20.544 2084.41,29.481 C2089.04,38.418 2095,59.602 2095,67.877 C2095,84.096 2083.75,86.744 2070.18,86.744 M2067.53,7.966 C2021.85,7.966 2005.63,31.136 2005.63,52.651 C2005.63,74.166 2021.85,97.336 2067.53,97.336 C2113.21,97.336 2129.1,74.166 2129.1,52.651 C2129.1,31.136 2113.21,7.966 2067.53,7.966"/>
<path class="Note" d="M2070.18,1657.61 C2060.91,1657.61 2054.62,1654.96 2050.32,1646.69 C2046.01,1638.41 2040.06,1617.23 2039.73,1608.29 C2039.06,1599.35 2042.37,1594.06 2050.32,1591.41 C2054.29,1590.09 2059.59,1589.42 2064.55,1589.42 C2073.82,1589.42 2079.78,1591.41 2084.41,1600.35 C2089.04,1609.28 2095,1630.47 2095,1638.74 C2095,1654.96 2083.75,1657.61 2070.18,1657.61 M2067.53,1578.83 C2021.85,1578.83 2005.63,1602 2005.63,1623.52 C2005.63,1645.03 2021.85,1668.2 2067.53,1668.2 C2113.21,1668.2 2129.1,1645.03 2129.1,1623.52 C2129.1,1602 2113.21,1578.83 2067.53,1578.83"/>
<path class="Note" d="M2070.18,1285.56 C2060.91,1285.56 2054.62,1282.91 2050.32,1274.64 C2046.01,1266.36 2040.06,1245.18 2039.73,1236.24 C2039.06,1227.31 2042.37,1222.01 2050.32,1219.36 C2054.29,1218.04 2059.59,1217.38 2064.55,1217.38 C2073.82,1217.38 2079.78,1219.36 2084.41,1228.3 C2089.04,1237.24 2095,1258.42 2095,1266.7 C2095,1282.91 2083.75,1285.56 2070.18,1285.56 M2067.53,1206.78 C2021.85,1206.78 2005.63,1229.95 2005.63,1251.47 C2005.63,1272.98 2021.85,1296.15 2067.53,1296.15 C2113.21,1296.15 2129.1,1272.98 2129.1,1251.47 C2129.1,1229.95 2113.21,1206.78 2067.53,1206.78"/>
<path class="Note" d="M2070.18,1409.58 C2060.91,1409.58 2054.62,1406.93 2050.32,1398.66 C2046.01,1390.38 2040.06,1369.2 2039.73,1360.26 C2039.06,1351.32 2042.37,1346.03 2050.32,1343.38 C2054.29,1342.05 2059.59,1341.39 2064.55,1341.39 C2073.82,1341.39 2079.78,1343.38 2084.41,1352.32 C2089.04,1361.25 2095,1382.44 2095,1390.71 C2095,1406.93 2083.75,1409.58 2070.18,1409.58 M2067.53,1330.8 C2021.85,1330.8 2005.63,1353.97 2005.63,1375.49 C2005.63,1397 2021.85,1420.17 2067.53,1420.17 C2113.21,1420.17 2129.1,1397 2129.1,1375.49 C2129.1,1353.97 2113.21,1330.8 2067.53,1330.8"/>
<path class="Note" d="M1195.97,1244.22 C1186.7,1244.22 1180.41,1241.58 1176.11,1233.3 C1171.81,1225.03 1165.85,1203.84 1165.52,1194.91 C1164.86,1185.97 1168.17,1180.67 1176.11,1178.02 C1180.08,1176.7 1185.38,1176.04 1190.34,1176.04 C1199.61,1176.04 1205.57,1178.02 1210.2,1186.96 C1214.84,1195.9 1220.8,1217.08 1220.8,1225.36 C1220.8,1241.58 1209.54,1244.22 1195.97,1244.22 M1193.32,1165.45 C1147.65,1165.45 1131.43,1188.62 1131.43,1210.13 C1131.43,1231.65 1147.65,1254.82 1193.32,1254.82 C1239,1254.82 1254.89,1231.65 1254.89,1210.13 C1254.89,1188.62 1239,1165.45 1193.32,1165.45"/>
<path class="Note" d="M1080.87,1285.56 C1071.6,1285.56 1065.31,1282.91 1061.01,1274.64 C1056.71,1266.36 1050.75,1245.18 1050.42,1236.24 C1049.76,1227.31 1053.07,1222.01 1061.01,1219.36 C1064.98,1218.04 1070.28,1217.38 1075.24,1217.38 C1084.51,1217.38 1090.47,1219.36 1095.1,1228.3 C1099.74,1237.24 1105.69,1258.42 1105.69,1266.7 C1105.69,1282.91 1094.44,1285.56 1080.87,1285.56 M1078.22,1206.78 C1032.54,1206.78 1016.32,1229.95 1016.32,1251.47 C1016.32,1272.98 1032.54,1296.15 1078.22,1296.15 C1123.9,1296.15 1139.79,1272.98 1139.79,1251.47 C1139.79,1229.95 1123.9,1206.78 1078.22,1206.78"/>
<path class="Note" d="M1195.97,1409.58 C1186.7,1409.58 1180.41,1406.93 1176.11,1398.66 C1171.81,1390.38 1165.85,1369.2 1165.52,1360.26 C1164.86,1351.32 1168.17,1346.03 1176.11,1343.38 C1180.08,1342.05 1185.38,1341.39 1190.34,1341.39 C1199.61,1341.39 1205.57,1343.38 1210.2,1352.32 C1214.84,1361.25 1220.8,1382.44 1220.8,1390.71 C1220.8,1406.93 1209.54,1409.58 1195.97,1409.58 M1193.32,1330.8 C1147.65,1330.8 1131.43,1353.97 1131.43,1375.49 C1131.43,1397 1147.65,1420.17 1193.32,1420.17 C1239,1420.17 1254.89,1397 1254.89,1375.49 C1254.89,1353.97 1239,1330.8 1193.32,1330.8"/>
<path class="Note" d="M3117.36,1533.59 C3108.09,1533.59 3101.8,1530.95 3097.5,1522.67 C3093.2,1514.4 3087.24,1493.21 3086.91,1484.28 C3086.25,1475.34 3089.56,1470.04 3097.5,1467.39 C3101.47,1466.07 3106.77,1465.41 3111.73,1465.41 C3121,1465.41 3126.96,1467.39 3131.59,1476.33 C3136.23,1485.27 3142.18,1506.45 3142.18,1514.73 C3142.18,1530.95 3130.93,1533.59 3117.36,1533.59 M3114.71,1454.82 C3069.03,1454.82 3052.81,1477.99 3052.81,1499.5 C3052.81,1521.02 3069.03,1544.19 3114.71,1544.19 C3160.39,1544.19 3176.28,1521.02 3176.28,1499.5 C3176.28,1477.99 3160.39,1454.82 3114.71,1454.82"/>
<path class="Note" d="M3117.36,1285.56 C3108.09,1285.56 3101.8,1282.91 3097.5,1274.64 C3093.2,1266.36 3087.24,1245.18 3086.91,1236.24 C3086.25,1227.31 3089.56,1222.01 3097.5,1219.36 C3101.47,1218.04 3106.77,1217.38 3111.73,1217.38 C3121,1217.38 3126.96,1219.36 3131.59,1228.3 C3136.23,1237.24 3142.18,1258.42 3142.18,1266.7 C3142.18,1282.91 3130.93,1285.56 3117.36,1285.56 M3114.71,1206.78 C3069.03,1206.78 3052.81,1229.95 3052.81,1251.47 C3052.81,1272.98 3069.03,1296.15 3114.71,1296.15 C3160.39,1296.15 3176.28,1272.98 3176.28,1251.47 C3176.28,1229.95 3160.39,1206.78 3114.71,1206.78"/>
<path class="Note" d="M1195.97,1657.61 C1186.7,1657.61 1180.41,1654.96 1176.11,1646.69 C1171.81,1638.41 1165.85,1617.23 1165.52,1608.29 C1164.86,1599.35 1168.17,1594.06 1176.11,1591.41 C1180.08,1590.09 1185.38,1589.42 1190.34,1589.42 C1199.61,1589.42 1205.57,1591.41 1210.2,1600.35 C1214.84,1609.28 1220.8,1630.47 1220.8,1638.74 C1220.8,1654.96 1209.54,1657.61 1195.97,1657.61 M1193.32,1578.83 C1147.65,1578.83 1131.43,1602 1131.43,1623.52 C1131.43,1645.03 1147.65,1668.2 1193.32,1668.2 C1239,1668.2 1254.89,1645.03 1254.89,1623.52 C1254.89,1602 1239,1578.83 1193.32,1578.83"/>
<path class="Clef" d="M327.679,699.908 C321.059,701.232 314.77,701.894 308.481,701.894 C261.148,701.894 220.766,668.794 220.766,618.813 C220.766,578.431 249.232,542.352 278.36,517.196 C283.987,512.231 289.283,507.597 294.248,502.632 C297.227,520.506 299.544,536.063 301.861,549.634 C271.74,558.571 251.218,590.347 251.218,621.461 C251.218,644.631 269.423,676.407 295.903,676.407 C298.551,676.407 301.53,675.083 301.53,672.104 C301.53,669.125 298.22,667.47 294.248,664.822 C281.339,656.878 274.057,648.272 274.057,632.053 C274.057,611.862 288.952,595.643 308.481,591.009 L327.679,699.908 M298.551,359.64 C301.53,346.4 316.756,311.645 333.968,311.645 C338.933,311.645 346.877,327.864 346.877,350.703 C346.877,385.127 321.39,410.945 298.551,433.453 C296.565,420.213 294.91,407.304 294.91,393.402 C294.91,381.155 295.903,369.901 298.551,359.64 M374.681,638.673 C374.681,662.174 365.082,686.337 341.581,695.936 C334.63,656.216 325.693,603.587 323.376,589.023 C353.166,589.023 374.681,609.214 374.681,638.673 M229.041,801.525 C229.041,823.371 245.922,852.168 290.607,852.168 C306.164,852.168 319.735,848.196 331.651,840.914 C349.525,828.336 354.159,806.49 354.159,785.637 C354.159,772.728 352.173,757.833 348.863,738.966 C347.87,732.346 345.884,722.416 343.898,709.507 C376.336,698.915 400.499,665.153 400.499,631.06 C400.499,581.079 365.082,547.317 316.756,547.317 C313.446,527.457 310.136,507.928 307.157,489.392 C342.243,452.651 366.406,411.276 366.406,358.647 C366.406,328.526 357.138,304.032 351.842,292.116 C343.898,275.235 334.299,263.65 328.341,263.65 C326.024,263.65 315.763,267.622 304.84,280.531 C283.656,305.687 277.698,348.055 277.698,375.859 C277.698,393.733 279.353,409.952 284.98,447.024 C284.649,447.355 267.437,464.898 260.486,470.525 C230.365,498.66 188.659,538.711 188.659,604.911 C188.659,666.808 242.612,715.465 304.178,715.465 C313.777,715.465 322.714,714.472 330.327,713.148 C336.616,744.924 340.257,768.094 340.257,785.637 C340.257,820.061 322.714,838.266 289.283,838.266 C281.339,838.266 274.388,836.611 273.726,836.611 C273.395,836.28 272.733,835.949 272.733,835.618 C272.733,834.956 273.395,834.625 274.388,834.294 C289.945,831.977 305.502,818.737 305.502,797.553 C305.502,779.679 291.931,760.812 267.106,760.812 C243.936,760.812 229.041,779.679 229.041,801.525"/>
<path class="Clef" d="M376.667,1293.43 C376.667,1302.7 383.949,1309.98 392.555,1309.98 C401.161,1309.98 408.443,1302.7 408.443,1293.43 C408.443,1284.17 401.161,1276.55 392.555,1276.55 C383.949,1276.55 376.667,1284.17 376.667,1293.43 M272.733,1251.4 C247.577,1251.4 227.386,1265.96 227.055,1265.96 C207.526,1280.19 194.948,1302.04 194.948,1326.2 C194.948,1350.37 208.85,1368.24 233.344,1368.24 C254.528,1368.24 271.078,1354.01 271.078,1332.16 C271.078,1313.29 254.528,1297.74 235.992,1297.74 C232.02,1297.74 228.379,1298.4 225.4,1299.39 C222.09,1300.72 216.463,1304.03 213.815,1306.34 C216.132,1291.78 226.062,1277.22 238.971,1270.26 C247.246,1265.63 257.838,1263.64 269.423,1263.64 C303.185,1263.64 319.735,1290.79 319.735,1346.39 C319.735,1389.42 292.262,1451.32 259.824,1480.45 C225.4,1511.89 192.962,1526.79 192.631,1526.79 C192.631,1526.79 188.659,1529.11 188.659,1533.08 C188.659,1533.74 188.99,1534.07 188.99,1534.73 C189.983,1538.04 192.962,1538.71 194.948,1538.71 C195.279,1538.71 196.272,1538.37 196.603,1538.37 C196.934,1538.37 234.668,1522.82 264.789,1499.32 C311.129,1465.89 363.427,1406.97 363.427,1346.06 C363.427,1288.47 332.313,1251.4 272.733,1251.4 M376.667,1375.19 C376.667,1384.46 383.949,1392.07 392.555,1392.07 C401.161,1392.07 408.443,1384.46 408.443,1375.19 C408.443,1365.92 401.161,1358.31 392.555,1358.31 C383.949,1358.31 376.667,1365.92 376.667,1375.19"/>
<path class="KeySig" d="M513.977,535.805 C513.977,561.954 500.406,575.856 481.208,591.082 L482.201,526.537 C482.863,523.558 487.828,513.959 501.068,513.959 C512.984,513.959 513.977,525.213 513.977,532.164 L513.977,535.805 M510.005,497.74 C493.455,497.74 483.856,508.001 482.201,509.987 L483.525,403.736 C483.525,401.088 481.539,399.102 478.891,399.102 L474.919,399.102 C472.271,399.102 470.285,401.088 470.285,403.736 L471.94,602.667 C471.94,605.315 473.926,607.301 476.574,607.301 C477.236,607.301 478.56,606.97 479.222,606.639 C507.688,592.406 537.478,565.264 537.478,531.171 C537.478,513.959 529.534,497.74 510.005,497.74"/>
<path class="KeySig" d="M605.915,411.789 C605.915,437.938 592.344,451.84 573.146,467.066 L574.139,402.521 C574.801,399.542 579.766,389.943 593.006,389.943 C604.922,389.943 605.915,401.197 605.915,408.148 L605.915,411.789 M601.943,373.724 C585.393,373.724 575.794,383.985 574.139,385.971 L575.463,279.72 C575.463,277.072 573.477,275.086 570.829,275.086 L566.857,275.086 C564.209,275.086 562.223,277.072 562.223,279.72 L563.878,478.651 C563.878,481.299 565.864,483.285 568.512,483.285 C569.174,483.285 570.498,482.954 571.16,482.623 C599.626,468.39 629.416,441.248 629.416,407.155 C629.416,389.943 621.472,373.724 601.943,373.724"/>
<path class="KeySig" d="M697.868,577.144 C697.868,603.293 684.297,617.195 665.099,632.421 L666.092,567.876 C666.754,564.897 671.719,555.298 684.959,555.298 C696.875,555.298 697.868,566.552 697.868,573.503 L697.868,577.144 M693.896,539.079 C677.346,539.079 667.747,549.34 666.092,551.326 L667.416,445.075 C667.416,442.427 665.43,440.441 662.782,440.441 L658.81,440.441 C656.162,440.441 654.176,442.427 654.176,445.075 L655.831,644.006 C655.831,646.654 657.817,648.64 660.465,648.64 C661.127,648.64 662.451,648.309 663.113,647.978 C691.579,633.745 721.369,606.603 721.369,572.51 C721.369,555.298 713.425,539.079 693.896,539.079"/>
<path class="KeySig" d="M513.977,1486.59 C513.977,1512.74 500.406,1526.64 481.208,1541.87 L482.201,1477.32 C482.863,1474.35 487.828,1464.75 501.068,1464.75 C512.984,1464.75 513.977,1476 513.977,1482.95 L513.977,1486.59 M510.005,1448.53 C493.455,1448.53 483.856,1458.79 482.201,1460.77 L483.525,1354.52 C483.525,1351.88 481.539,1349.89 478.891,1349.89 L474.919,1349.89 C472.271,1349.89 470.285,1351.88 470.285,1354.52 L471.94,1553.45 C471.94,1556.1 473.926,1558.09 476.574,1558.09 C477.236,1558.09 478.56,1557.76 479.222,1557.43 C507.688,1543.19 537.478,1516.05 537.478,1481.96 C537.478,1464.75 529.534,1448.53 510.005,1448.53"/>
<path class="KeySig" d="M605.915,1362.58 C605.915,1388.73 592.344,1402.63 573.146,1417.85 L574.139,1353.31 C574.801,1350.33 579.766,1340.73 593.006,1340.73 C604.922,1340.73 605.915,1351.98 605.915,1358.94 L605.915,1362.58 M601.943,1324.51 C585.393,1324.51 575.794,1334.77 574.139,1336.76 L575.463,1230.51 C575.463,1227.86 573.477,1225.87 570.829,1225.87 L566.857,1225.87 C564.209,1225.87 562.223,1227.86 562.223,1230.51 L563.878,1429.44 C563.878,1432.09 565.864,1434.07 568.512,1434.07 C569.174,1434.07 570.498,1433.74 571.16,1433.41 C599.626,1419.18 629.416,1392.04 629.416,1357.94 C629.416,1340.73 621.472,1324.51 601.943,1324.51"/>
<path class="KeySig" d="M697.868,1527.93 C697.868,1554.08 684.297,1567.98 665.099,1583.21 L666.092,1518.66 C666.754,1515.68 671.719,1506.08 684.959,1506.08 C696.875,1506.08 697.868,1517.34 697.868,1524.29 L697.868,1527.93 M693.896,1489.87 C677.346,1489.87 667.747,1500.13 666.092,1502.11 L667.416,1395.86 C667.416,1393.21 665.43,1391.23 662.782,1391.23 L658.81,1391.23 C656.162,1391.23 654.176,1393.21 654.176,1395.86 L655.831,1594.79 C655.831,1597.44 657.817,1599.43 660.465,1599.43 C661.127,1599.43 662.451,1599.1 663.113,1598.76 C691.579,1584.53 721.369,1557.39 721.369,1523.3 C721.369,1506.08 713.425,1489.87 693.896,1489.87"/>
<path class="Bracket" transform="matrix(3.625,0,0,3.65971,8,1582.51)" d="M2.979,-165.5 C8.937,-171.789 20.522,-184.698 20.522,-208.53 C20.522,-238.651 7.613,-269.103 7.613,-287.97 C7.613,-308.161 19.198,-327.028 19.86,-327.69 C19.86,-328.021 19.86,-328.021 19.86,-328.352 C19.86,-328.683 19.86,-329.014 19.529,-329.345 C19.198,-329.345 18.536,-329.345 18.205,-328.683 C17.874,-328.352 0,-310.478 0,-283.336 C0,-254.208 11.585,-233.686 11.585,-195.621 C11.585,-188.339 8.606,-176.754 0.331,-166.493 C0,-166.493 0,-165.831 0,-165.5 C-0.331,-165.169 0,-164.838 0.331,-164.507 C8.606,-154.246 11.585,-142.661 11.585,-135.379 C11.585,-97.314 0,-76.792 0,-47.664 C0,-20.853 17.874,-2.648 18.205,-2.317 C18.536,-1.655 19.198,-1.324 19.529,-1.655 C19.86,-1.986 20.191,-2.317 19.86,-2.648 C19.86,-2.648 19.86,-2.979 19.86,-3.31 C19.198,-3.972 7.613,-22.839 7.613,-43.03 C7.613,-61.897 20.522,-92.349 20.522,-122.47 C20.522,-146.633 8.937,-159.211 2.979,-165.5"/>
</svg>
