<?xml version="1.0" encoding="UTF-8" standalone="no"?>
<svg width="107.879mm" height="30.9368mm" viewBox="0 0 5096.66 1461.58"
 xmlns="http://www.w3.org/2000/svg" xmlns:xlink="http://www.w3.org/1999/xlink" version="1.2" baseProfile="full">
<title>C4c-1.musicxml</title>
<desc>Generated by MuseScore Studio 4.7.5</desc>
<polyline class="StaffLines" fill="none" stroke="#000000" stroke-width="9.09" stroke-linejoin="bevel" points="111.77,127.763 5088.66,127.763" />
<polyline class="StaffLines" fill="none" stroke="#000000" stroke-width="9.09" stroke-linejoin="bevel" points="111.77,210.44 5088.66,210.44" />
<polyline class="StaffLines" fill="none" stroke="#000000" stroke-width="9.09" stroke-linejoin="bevel" points="111.77,293.117 5088.66,293.117" />
<polyline class="StaffLines" fill="none" stroke="#000000" stroke-width="9.09" stroke-linejoin="bevel" points="111.77,375.794 5088.66,375.794" />
<polyline class="StaffLines" fill="none" stroke="#000000" stroke-width="9.09" stroke-linejoin="bevel" points="111.77,458.471 5088.66,458.471" />
<polyline class="StaffLines" fill="none" stroke="#000000" stroke-width="9.09" stroke-linejoin="bevel" points="111.77,995.873 5088.66,995.873" />
<polyline class="StaffLines" fill="none" stroke="#000000" stroke-width="9.09" stroke-linejoin="bevel" points="111.77,1078.55 5088.66,1078.55" />
<polyline class="StaffLines" fill="none" stroke="#000000" stroke-width="9.09" stroke-linejoin="bevel" points="111.77,1161.23 5088.66,1161.23" />
<polyline class="StaffLines" fill="none" stroke="#000000" stroke-width="9.09" stroke-linejoin="bevel" points="111.77,1243.9 5088.66,1243.9" />
<polyline class="StaffLines" fill="none" stroke="#000000" stroke-width="9.09" stroke-linejoin="bevel" points="111.77,1326.58 5088.66,1326.58" />
<polyline class="BarLine" fill="none" stroke="#000000" stroke-width="14.88" stroke-linejoin="bevel" points="5005.15,123.215 5005.15,995.873" />
<polyline class="BarLine" fill="none" stroke="#000000" stroke-width="45.47" stroke-linejoin="bevel" points="5065.92,123.215 5065.92,995.873" />
<polyline class="BarLine" fill="none" stroke="#000000" stroke-width="14.88" stroke-linejoin="bevel" points="1856.81,123.215 1856.81,995.873" />
<polyline class="BarLine" fill="none" stroke="#000000" stroke-width="14.88" stroke-linejoin="bevel" points="119.211,123.215 119.211,995.873" />
<polyline class="BarLine" fill="none" stroke="#000000" stroke-width="14.88" stroke-linejoin="bevel" points="2931.61,123.215 2931.61,995.873" />
<polyline class="BarLine" fill="none" stroke="#000000" stroke-width="14.88" stroke-linejoin="bevel" points="4006.41,123.215 4006.41,995.873" />
<polyline class="BarLine" fill="none" stroke="#000000" stroke-width="14.88" stroke-linejoin="bevel" points="5005.15,991.325 5005.15,1331.13" />
<polyline class="BarLine" fill="none" stroke="#000000" stroke-width="45.47" stroke-linejoin="bevel" points="5065.92,991.325 5065.92,1331.13" />
<polyline class="BarLine" fill="none" stroke="#000000" stroke-width="14.88" stroke-linejoin="bevel" points="119.211,991.325 119.211,1331.13" />
<polyline class="BarLine" fill="none" stroke="#000000" stroke-width="14.88" stroke-linejoin="bevel" points="1856.81,991.325 1856.81,1331.13" />
<polyline class="BarLine" fill="none" stroke="#000000" stroke-width="14.88" stroke-linejoin="bevel" points="2931.61,991.325 2931.61,1331.13" />
<polyline class="BarLine" fill="none" stroke="#000000" stroke-width="14.88" stroke-linejoin="bevel" points="4006.41,991.325 4006.41,1331.13" />
<path class="Accidental" d="M1997.23,362.554 C1997.23,388.703 1983.66,402.605 1964.46,417.831 L1965.45,353.286 C1966.12,350.307 1971.08,340.708 1984.32,340.708 C1996.24,340.708 1997.23,351.962 1997.23,358.913 L1997.23,362.554 M1993.26,324.489 C1976.71,324.489 1967.11,334.75 1965.45,336.736 L1966.78,230.485 C1966.78,227.837 1964.79,225.851 1962.14,225.851 L1958.17,225.851 C1955.52,225.851 1953.54,227.837 1953.54,230.485 L1955.19,429.416 C1955.19,432.064 1957.18,434.05 1959.83,434.05 C1960.49,434.05 1961.81,433.719 1962.47,433.388 C1990.94,419.155 2020.73,392.013 2020.73,357.92 C2020.73,340.708 2012.79,324.489 1993.26,324.489"/>
<path class="Accidental" d="M3072.03,403.893 C3072.03,430.042 3058.46,443.944 3039.26,459.17 L3040.26,394.625 C3040.92,391.646 3045.88,382.047 3059.12,382.047 C3071.04,382.047 3072.03,393.301 3072.03,400.252 L3072.03,403.893 M3068.06,365.828 C3051.51,365.828 3041.91,376.089 3040.26,378.075 L3041.58,271.824 C3041.58,269.176 3039.6,267.19 3036.95,267.19 L3032.98,267.19 C3030.33,267.19 3028.34,269.176 3028.34,271.824 L3030,470.755 C3030,473.403 3031.98,475.389 3034.63,475.389 C3035.29,475.389 3036.62,475.058 3037.28,474.727 C3065.74,460.494 3095.53,433.352 3095.53,399.259 C3095.53,382.047 3087.59,365.828 3068.06,365.828"/>
<path class="Accidental" d="M1997.23,1147.99 C1997.23,1174.14 1983.66,1188.04 1964.46,1203.26 L1965.45,1138.72 C1966.12,1135.74 1971.08,1126.14 1984.32,1126.14 C1996.24,1126.14 1997.23,1137.4 1997.23,1144.35 L1997.23,1147.99 M1993.26,1109.92 C1976.71,1109.92 1967.11,1120.18 1965.45,1122.17 L1966.78,1015.92 C1966.78,1013.27 1964.79,1011.28 1962.14,1011.28 L1958.17,1011.28 C1955.52,1011.28 1953.54,1013.27 1953.54,1015.92 L1955.19,1214.85 C1955.19,1217.5 1957.18,1219.48 1959.83,1219.48 C1960.49,1219.48 1961.81,1219.15 1962.47,1218.82 C1990.94,1204.59 2020.73,1177.45 2020.73,1143.35 C2020.73,1126.14 2012.79,1109.92 1993.26,1109.92"/>
<path class="Accidental" d="M3036.48,1354.68 C3036.48,1380.83 3022.91,1394.73 3003.71,1409.96 L3004.71,1345.41 C3005.37,1342.43 3010.33,1332.83 3023.57,1332.83 C3035.49,1332.83 3036.48,1344.09 3036.48,1351.04 L3036.48,1354.68 M3032.51,1316.61 C3015.96,1316.61 3006.36,1326.88 3004.71,1328.86 L3006.03,1222.61 C3006.03,1219.96 3004.04,1217.98 3001.4,1217.98 L2997.42,1217.98 C2994.78,1217.98 2992.79,1219.96 2992.79,1222.61 L2994.44,1421.54 C2994.44,1424.19 2996.43,1426.18 2999.08,1426.18 C2999.74,1426.18 3001.06,1425.84 3001.73,1425.51 C3030.19,1411.28 3059.98,1384.14 3059.98,1350.05 C3059.98,1332.83 3052.04,1316.61 3032.51,1316.61"/>
<path class="Accidental" d="M1961.68,1313.34 C1961.68,1339.49 1948.11,1353.39 1928.91,1368.62 L1929.9,1304.07 C1930.56,1301.09 1935.53,1291.5 1948.77,1291.5 C1960.69,1291.5 1961.68,1302.75 1961.68,1309.7 L1961.68,1313.34 M1957.71,1275.28 C1941.16,1275.28 1931.56,1285.54 1929.9,1287.52 L1931.23,1181.27 C1931.23,1178.62 1929.24,1176.64 1926.59,1176.64 L1922.62,1176.64 C1919.97,1176.64 1917.99,1178.62 1917.99,1181.27 L1919.64,1380.2 C1919.64,1382.85 1921.63,1384.84 1924.28,1384.84 C1924.94,1384.84 1926.26,1384.51 1926.92,1384.18 C1955.39,1369.94 1985.18,1342.8 1985.18,1308.71 C1985.18,1291.5 1977.24,1275.28 1957.71,1275.28"/>
<path class="Accidental" d="M3072.03,1189.33 C3072.03,1215.47 3058.46,1229.38 3039.26,1244.6 L3040.26,1180.06 C3040.92,1177.08 3045.88,1167.48 3059.12,1167.48 C3071.04,1167.48 3072.03,1178.73 3072.03,1185.68 L3072.03,1189.33 M3068.06,1151.26 C3051.51,1151.26 3041.91,1161.52 3040.26,1163.51 L3041.58,1057.26 C3041.58,1054.61 3039.6,1052.62 3036.95,1052.62 L3032.98,1052.62 C3030.33,1052.62 3028.34,1054.61 3028.34,1057.26 L3030,1256.19 C3030,1258.84 3031.98,1260.82 3034.63,1260.82 C3035.29,1260.82 3036.62,1260.49 3037.28,1260.16 C3065.74,1245.93 3095.53,1218.78 3095.53,1184.69 C3095.53,1167.48 3087.59,1151.26 3068.06,1151.26"/>
<polyline class="LedgerLine" fill="none" stroke="#000000" stroke-width="13.23" stroke-linejoin="bevel" points="892.79,541.148 1070.73,541.148" />
<polyline class="LedgerLine" fill="none" stroke="#000000" stroke-width="13.23" stroke-linejoin="bevel" points="4089.92,1409.26 4267.85,1409.26" />
<path class="Note" d="M2105.89,285.54 C2096.63,285.54 2090.34,282.892 2086.03,274.617 C2081.73,266.342 2075.77,245.158 2075.44,236.221 C2074.78,227.284 2078.09,221.988 2086.03,219.34 C2090.01,218.016 2095.3,217.354 2100.27,217.354 C2109.54,217.354 2115.49,219.34 2120.13,228.277 C2124.76,237.214 2130.72,258.398 2130.72,266.673 C2130.72,282.892 2119.47,285.54 2105.89,285.54 M2103.25,206.762 C2057.57,206.762 2041.35,229.932 2041.35,251.447 C2041.35,272.962 2057.57,296.132 2103.25,296.132 C2148.92,296.132 2164.81,272.962 2164.81,251.447 C2164.81,229.932 2148.92,206.762 2103.25,206.762"/>
<path class="Note" d="M3180.7,450.895 C3171.43,450.895 3165.14,448.247 3160.84,439.972 C3156.53,431.697 3150.58,410.513 3150.25,401.576 C3149.58,392.639 3152.89,387.343 3160.84,384.695 C3164.81,383.371 3170.11,382.709 3175.07,382.709 C3184.34,382.709 3190.3,384.695 3194.93,393.632 C3199.56,402.569 3205.52,423.753 3205.52,432.028 C3205.52,448.247 3194.27,450.895 3180.7,450.895 M3178.05,372.117 C3132.37,372.117 3116.15,395.287 3116.15,416.802 C3116.15,438.317 3132.37,461.487 3178.05,461.487 C3223.73,461.487 3239.62,438.317 3239.62,416.802 C3239.62,395.287 3223.73,372.117 3178.05,372.117"/>
<path class="Note" d="M1099.72,326.879 C1090.45,326.879 1084.16,324.231 1079.86,315.956 C1075.56,307.681 1069.6,286.497 1069.27,277.56 C1068.61,268.623 1071.92,263.327 1079.86,260.679 C1083.83,259.355 1089.13,258.693 1094.09,258.693 C1103.36,258.693 1109.32,260.679 1113.95,269.616 C1118.59,278.553 1124.55,299.737 1124.55,308.012 C1124.55,324.231 1113.29,326.879 1099.72,326.879 M1097.07,248.101 C1051.39,248.101 1035.18,271.271 1035.18,292.786 C1035.18,314.301 1051.39,337.471 1097.07,337.471 C1142.75,337.471 1158.64,314.301 1158.64,292.786 C1158.64,271.271 1142.75,248.101 1097.07,248.101"/>
<path class="Note" d="M3180.7,326.879 C3171.43,326.879 3165.14,324.231 3160.84,315.956 C3156.53,307.681 3150.58,286.497 3150.25,277.56 C3149.58,268.623 3152.89,263.327 3160.84,260.679 C3164.81,259.355 3170.11,258.693 3175.07,258.693 C3184.34,258.693 3190.3,260.679 3194.93,269.616 C3199.56,278.553 3205.52,299.737 3205.52,308.012 C3205.52,324.231 3194.27,326.879 3180.7,326.879 M3178.05,248.101 C3132.37,248.101 3116.15,271.271 3116.15,292.786 C3116.15,314.301 3132.37,337.471 3178.05,337.471 C3223.73,337.471 3239.62,314.301 3239.62,292.786 C3239.62,271.271 3223.73,248.101 3178.05,248.101"/>
<path class="Note" d="M2105.89,409.556 C2096.63,409.556 2090.34,406.908 2086.03,398.633 C2081.73,390.358 2075.77,369.174 2075.44,360.237 C2074.78,351.3 2078.09,346.004 2086.03,343.356 C2090.01,342.032 2095.3,341.37 2100.27,341.37 C2109.54,341.37 2115.49,343.356 2120.13,352.293 C2124.76,361.23 2130.72,382.414 2130.72,390.689 C2130.72,406.908 2119.47,409.556 2105.89,409.556 M2103.25,330.778 C2057.57,330.778 2041.35,353.948 2041.35,375.463 C2041.35,396.978 2057.57,420.148 2103.25,420.148 C2148.92,420.148 2164.81,396.978 2164.81,375.463 C2164.81,353.948 2148.92,330.778 2103.25,330.778"/>
<path class="Note" d="M984.618,368.217 C975.35,368.217 969.061,365.569 964.758,357.294 C960.455,349.019 954.497,327.835 954.166,318.898 C953.504,309.961 956.814,304.665 964.758,302.017 C968.73,300.693 974.026,300.031 978.991,300.031 C988.259,300.031 994.217,302.017 998.851,310.954 C1003.49,319.891 1009.44,341.075 1009.44,349.35 C1009.44,365.569 998.189,368.217 984.618,368.217 M981.97,289.439 C936.292,289.439 920.073,312.609 920.073,334.124 C920.073,355.639 936.292,378.809 981.97,378.809 C1027.65,378.809 1043.54,355.639 1043.54,334.124 C1043.54,312.609 1027.65,289.439 981.97,289.439"/>
<path class="Note" d="M984.618,574.91 C975.35,574.91 969.061,572.262 964.758,563.987 C960.455,555.712 954.497,534.528 954.166,525.591 C953.504,516.654 956.814,511.358 964.758,508.71 C968.73,507.386 974.026,506.724 978.991,506.724 C988.259,506.724 994.217,508.71 998.851,517.647 C1003.49,526.584 1009.44,547.768 1009.44,556.043 C1009.44,572.262 998.189,574.91 984.618,574.91 M981.97,496.132 C936.292,496.132 920.073,519.302 920.073,540.817 C920.073,562.332 936.292,585.502 981.97,585.502 C1027.65,585.502 1043.54,562.332 1043.54,540.817 C1043.54,519.302 1027.65,496.132 981.97,496.132"/>
<path class="Note" d="M4181.74,492.233 C4172.48,492.233 4166.19,489.585 4161.88,481.31 C4157.58,473.035 4151.62,451.851 4151.29,442.914 C4150.63,433.977 4153.94,428.681 4161.88,426.033 C4165.86,424.709 4171.15,424.047 4176.12,424.047 C4185.39,424.047 4191.34,426.033 4195.98,434.97 C4200.61,443.907 4206.57,465.091 4206.57,473.366 C4206.57,489.585 4195.32,492.233 4181.74,492.233 M4179.1,413.455 C4133.42,413.455 4117.2,436.625 4117.2,458.14 C4117.2,479.655 4133.42,502.825 4179.1,502.825 C4224.77,502.825 4240.66,479.655 4240.66,458.14 C4240.66,436.625 4224.77,413.455 4179.1,413.455"/>
<path class="Note" d="M4181.74,202.863 C4172.48,202.863 4166.19,200.215 4161.88,191.94 C4157.58,183.665 4151.62,162.481 4151.29,153.544 C4150.63,144.607 4153.94,139.311 4161.88,136.663 C4165.86,135.339 4171.15,134.677 4176.12,134.677 C4185.39,134.677 4191.34,136.663 4195.98,145.6 C4200.61,154.537 4206.57,175.721 4206.57,183.996 C4206.57,200.215 4195.32,202.863 4181.74,202.863 M4179.1,124.085 C4133.42,124.085 4117.2,147.255 4117.2,168.77 C4117.2,190.285 4133.42,213.455 4179.1,213.455 C4224.77,213.455 4240.66,190.285 4240.66,168.77 C4240.66,147.255 4224.77,124.085 4179.1,124.085"/>
<path class="Note" d="M3180.7,1401.68 C3171.43,1401.68 3165.14,1399.03 3160.84,1390.76 C3156.53,1382.48 3150.58,1361.3 3150.25,1352.36 C3149.58,1343.43 3152.89,1338.13 3160.84,1335.48 C3164.81,1334.16 3170.11,1333.5 3175.07,1333.5 C3184.34,1333.5 3190.3,1335.48 3194.93,1344.42 C3199.56,1353.36 3205.52,1374.54 3205.52,1382.81 C3205.52,1399.03 3194.27,1401.68 3180.7,1401.68 M3178.05,1322.9 C3132.37,1322.9 3116.15,1346.07 3116.15,1367.59 C3116.15,1389.1 3132.37,1412.27 3178.05,1412.27 C3223.73,1412.27 3239.62,1389.1 3239.62,1367.59 C3239.62,1346.07 3223.73,1322.9 3178.05,1322.9"/>
<path class="Note" d="M3180.7,1236.33 C3171.43,1236.33 3165.14,1233.68 3160.84,1225.4 C3156.53,1217.13 3150.58,1195.95 3150.25,1187.01 C3149.58,1178.07 3152.89,1172.78 3160.84,1170.13 C3164.81,1168.8 3170.11,1168.14 3175.07,1168.14 C3184.34,1168.14 3190.3,1170.13 3194.93,1179.06 C3199.56,1188 3205.52,1209.19 3205.52,1217.46 C3205.52,1233.68 3194.27,1236.33 3180.7,1236.33 M3178.05,1157.55 C3132.37,1157.55 3116.15,1180.72 3116.15,1202.23 C3116.15,1223.75 3132.37,1246.92 3178.05,1246.92 C3223.73,1246.92 3239.62,1223.75 3239.62,1202.23 C3239.62,1180.72 3223.73,1157.55 3178.05,1157.55"/>
<path class="Note" d="M2105.89,1194.99 C2096.63,1194.99 2090.34,1192.34 2086.03,1184.07 C2081.73,1175.79 2075.77,1154.61 2075.44,1145.67 C2074.78,1136.73 2078.09,1131.44 2086.03,1128.79 C2090.01,1127.47 2095.3,1126.8 2100.27,1126.8 C2109.54,1126.8 2115.49,1128.79 2120.13,1137.73 C2124.76,1146.66 2130.72,1167.85 2130.72,1176.12 C2130.72,1192.34 2119.47,1194.99 2105.89,1194.99 M2103.25,1116.21 C2057.57,1116.21 2041.35,1139.38 2041.35,1160.9 C2041.35,1182.41 2057.57,1205.58 2103.25,1205.58 C2148.92,1205.58 2164.81,1182.41 2164.81,1160.9 C2164.81,1139.38 2148.92,1116.21 2103.25,1116.21"/>
<path class="Note" d="M3180.7,1029.63 C3171.43,1029.63 3165.14,1026.99 3160.84,1018.71 C3156.53,1010.44 3150.58,989.253 3150.25,980.316 C3149.58,971.379 3152.89,966.083 3160.84,963.435 C3164.81,962.111 3170.11,961.449 3175.07,961.449 C3184.34,961.449 3190.3,963.435 3194.93,972.372 C3199.56,981.309 3205.52,1002.49 3205.52,1010.77 C3205.52,1026.99 3194.27,1029.63 3180.7,1029.63 M3178.05,950.857 C3132.37,950.857 3116.15,974.027 3116.15,995.542 C3116.15,1017.06 3132.37,1040.23 3178.05,1040.23 C3223.73,1040.23 3239.62,1017.06 3239.62,995.542 C3239.62,974.027 3223.73,950.857 3178.05,950.857"/>
<path class="Note" d="M2105.89,1360.34 C2096.63,1360.34 2090.34,1357.7 2086.03,1349.42 C2081.73,1341.15 2075.77,1319.96 2075.44,1311.02 C2074.78,1302.09 2078.09,1296.79 2086.03,1294.14 C2090.01,1292.82 2095.3,1292.16 2100.27,1292.16 C2109.54,1292.16 2115.49,1294.14 2120.13,1303.08 C2124.76,1312.02 2130.72,1333.2 2130.72,1341.48 C2130.72,1357.7 2119.47,1360.34 2105.89,1360.34 M2103.25,1281.57 C2057.57,1281.57 2041.35,1304.74 2041.35,1326.25 C2041.35,1347.77 2057.57,1370.94 2103.25,1370.94 C2148.92,1370.94 2164.81,1347.77 2164.81,1326.25 C2164.81,1304.74 2148.92,1281.57 2103.25,1281.57"/>
<path class="Note" d="M984.618,1153.65 C975.35,1153.65 969.061,1151 964.758,1142.73 C960.455,1134.45 954.497,1113.27 954.166,1104.33 C953.504,1095.39 956.814,1090.1 964.758,1087.45 C968.73,1086.13 974.026,1085.46 978.991,1085.46 C988.259,1085.46 994.217,1087.45 998.851,1096.39 C1003.49,1105.32 1009.44,1126.51 1009.44,1134.78 C1009.44,1151 998.189,1153.65 984.618,1153.65 M981.97,1074.87 C936.292,1074.87 920.073,1098.04 920.073,1119.56 C920.073,1141.07 936.292,1164.24 981.97,1164.24 C1027.65,1164.24 1043.54,1141.07 1043.54,1119.56 C1043.54,1098.04 1027.65,1074.87 981.97,1074.87"/>
<path class="Note" d="M984.618,1319 C975.35,1319 969.061,1316.36 964.758,1308.08 C960.455,1299.81 954.497,1278.62 954.166,1269.69 C953.504,1260.75 956.814,1255.45 964.758,1252.8 C968.73,1251.48 974.026,1250.82 978.991,1250.82 C988.259,1250.82 994.217,1252.8 998.851,1261.74 C1003.49,1270.68 1009.44,1291.86 1009.44,1300.14 C1009.44,1316.36 998.189,1319 984.618,1319 M981.97,1240.23 C936.292,1240.23 920.073,1263.4 920.073,1284.91 C920.073,1306.43 936.292,1329.6 981.97,1329.6 C1027.65,1329.6 1043.54,1306.43 1043.54,1284.91 C1043.54,1263.4 1027.65,1240.23 981.97,1240.23"/>
<path class="Note" d="M4181.74,1443.02 C4172.48,1443.02 4166.19,1440.37 4161.88,1432.1 C4157.58,1423.82 4151.62,1402.64 4151.29,1393.7 C4150.63,1384.76 4153.94,1379.47 4161.88,1376.82 C4165.86,1375.5 4171.15,1374.83 4176.12,1374.83 C4185.39,1374.83 4191.34,1376.82 4195.98,1385.76 C4200.61,1394.69 4206.57,1415.88 4206.57,1424.15 C4206.57,1440.37 4195.32,1443.02 4181.74,1443.02 M4179.1,1364.24 C4133.42,1364.24 4117.2,1387.41 4117.2,1408.93 C4117.2,1430.44 4133.42,1453.61 4179.1,1453.61 C4224.77,1453.61 4240.66,1430.44 4240.66,1408.93 C4240.66,1387.41 4224.77,1364.24 4179.1,1364.24"/>
<path class="Note" d="M4181.74,1277.67 C4172.48,1277.67 4166.19,1275.02 4161.88,1266.74 C4157.58,1258.47 4151.62,1237.28 4151.29,1228.35 C4150.63,1219.41 4153.94,1214.11 4161.88,1211.47 C4165.86,1210.14 4171.15,1209.48 4176.12,1209.48 C4185.39,1209.48 4191.34,1211.47 4195.98,1220.4 C4200.61,1229.34 4206.57,1250.52 4206.57,1258.8 C4206.57,1275.02 4195.32,1277.67 4181.74,1277.67 M4179.1,1198.89 C4133.42,1198.89 4117.2,1222.06 4117.2,1243.57 C4117.2,1265.09 4133.42,1288.26 4179.1,1288.26 C4224.77,1288.26 4240.66,1265.09 4240.66,1243.57 C4240.66,1222.06 4224.77,1198.89 4179.1,1198.89"/>
<path class="Note" d="M4181.74,1070.97 C4172.48,1070.97 4166.19,1068.33 4161.88,1060.05 C4157.58,1051.78 4151.62,1030.59 4151.29,1021.65 C4150.63,1012.72 4153.94,1007.42 4161.88,1004.77 C4165.86,1003.45 4171.15,1002.79 4176.12,1002.79 C4185.39,1002.79 4191.34,1004.77 4195.98,1013.71 C4200.61,1022.65 4206.57,1043.83 4206.57,1052.11 C4206.57,1068.33 4195.32,1070.97 4181.74,1070.97 M4179.1,992.195 C4133.42,992.195 4117.2,1015.37 4117.2,1036.88 C4117.2,1058.4 4133.42,1081.57 4179.1,1081.57 C4224.77,1081.57 4240.66,1058.4 4240.66,1036.88 C4240.66,1015.37 4224.77,992.195 4179.1,992.195"/>
<path class="Note" d="M2105.89,988.296 C2096.63,988.296 2090.34,985.648 2086.03,977.373 C2081.73,969.098 2075.77,947.914 2075.44,938.977 C2074.78,930.04 2078.09,924.744 2086.03,922.096 C2090.01,920.772 2095.3,920.11 2100.27,920.11 C2109.54,920.11 2115.49,922.096 2120.13,931.033 C2124.76,939.97 2130.72,961.154 2130.72,969.429 C2130.72,985.648 2119.47,988.296 2105.89,988.296 M2103.25,909.518 C2057.57,909.518 2041.35,932.688 2041.35,954.203 C2041.35,975.718 2057.57,998.888 2103.25,998.888 C2148.92,998.888 2164.81,975.718 2164.81,954.203 C2164.81,932.688 2148.92,909.518 2103.25,909.518"/>
<path class="Clef" d="M327.679,443.98 C321.059,445.304 314.77,445.966 308.481,445.966 C261.148,445.966 220.766,412.866 220.766,362.885 C220.766,322.503 249.232,286.424 278.36,261.268 C283.987,256.303 289.283,251.669 294.248,246.704 C297.227,264.578 299.544,280.135 301.861,293.706 C271.74,302.643 251.218,334.419 251.218,365.533 C251.218,388.703 269.423,420.479 295.903,420.479 C298.551,420.479 301.53,419.155 301.53,416.176 C301.53,413.197 298.22,411.542 294.248,408.894 C281.339,400.95 274.057,392.344 274.057,376.125 C274.057,355.934 288.952,339.715 308.481,335.081 L327.679,443.98 M298.551,103.712 C301.53,90.472 316.756,55.717 333.968,55.717 C338.933,55.717 346.877,71.936 346.877,94.775 C346.877,129.199 321.39,155.017 298.551,177.525 C296.565,164.285 294.91,151.376 294.91,137.474 C294.91,125.227 295.903,113.973 298.551,103.712 M374.681,382.745 C374.681,406.246 365.082,430.409 341.581,440.008 C334.63,400.288 325.693,347.659 323.376,333.095 C353.166,333.095 374.681,353.286 374.681,382.745 M229.041,545.597 C229.041,567.443 245.922,596.24 290.607,596.24 C306.164,596.24 319.735,592.268 331.651,584.986 C349.525,572.408 354.159,550.562 354.159,529.709 C354.159,516.8 352.173,501.905 348.863,483.038 C347.87,476.418 345.884,466.488 343.898,453.579 C376.336,442.987 400.499,409.225 400.499,375.132 C400.499,325.151 365.082,291.389 316.756,291.389 C313.446,271.529 310.136,252 307.157,233.464 C342.243,196.723 366.406,155.348 366.406,102.719 C366.406,72.598 357.138,48.104 351.842,36.188 C343.898,19.307 334.299,7.722 328.341,7.722 C326.024,7.722 315.763,11.694 304.84,24.603 C283.656,49.759 277.698,92.127 277.698,119.931 C277.698,137.805 279.353,154.024 284.98,191.096 C284.649,191.427 267.437,208.97 260.486,214.597 C230.365,242.732 188.659,282.783 188.659,348.983 C188.659,410.88 242.612,459.537 304.178,459.537 C313.777,459.537 322.714,458.544 330.327,457.22 C336.616,488.996 340.257,512.166 340.257,529.709 C340.257,564.133 322.714,582.338 289.283,582.338 C281.339,582.338 274.388,580.683 273.726,580.683 C273.395,580.352 272.733,580.021 272.733,579.69 C272.733,579.028 273.395,578.697 274.388,578.366 C289.945,576.049 305.502,562.809 305.502,541.625 C305.502,523.751 291.931,504.884 267.106,504.884 C243.936,504.884 229.041,523.751 229.041,545.597"/>
<path class="Clef" d="M376.667,1037.51 C376.667,1046.77 383.949,1054.06 392.555,1054.06 C401.161,1054.06 408.443,1046.77 408.443,1037.51 C408.443,1028.24 401.161,1020.62 392.555,1020.62 C383.949,1020.62 376.667,1028.24 376.667,1037.51 M272.733,995.469 C247.577,995.469 227.386,1010.03 227.055,1010.03 C207.526,1024.27 194.948,1046.11 194.948,1070.27 C194.948,1094.44 208.85,1112.31 233.344,1112.31 C254.528,1112.31 271.078,1098.08 271.078,1076.23 C271.078,1057.37 254.528,1041.81 235.992,1041.81 C232.02,1041.81 228.379,1042.47 225.4,1043.46 C222.09,1044.79 216.463,1048.1 213.815,1050.41 C216.132,1035.85 226.062,1021.29 238.971,1014.34 C247.246,1009.7 257.838,1007.72 269.423,1007.72 C303.185,1007.72 319.735,1034.86 319.735,1090.47 C319.735,1133.5 292.262,1195.39 259.824,1224.52 C225.4,1255.97 192.962,1270.86 192.631,1270.86 C192.631,1270.86 188.659,1273.18 188.659,1277.15 C188.659,1277.81 188.99,1278.14 188.99,1278.8 C189.983,1282.11 192.962,1282.78 194.948,1282.78 C195.279,1282.78 196.272,1282.45 196.603,1282.45 C196.934,1282.45 234.668,1266.89 264.789,1243.39 C311.129,1209.96 363.427,1151.04 363.427,1090.13 C363.427,1032.54 332.313,995.469 272.733,995.469 M376.667,1119.26 C376.667,1128.53 383.949,1136.14 392.555,1136.14 C401.161,1136.14 408.443,1128.53 408.443,1119.26 C408.443,1109.99 401.161,1102.38 392.555,1102.38 C383.949,1102.38 376.667,1109.99 376.667,1119.26"/>
<path class="KeySig" d="M513.977,279.877 C513.977,306.026 500.406,319.928 481.208,335.154 L482.201,270.609 C482.863,267.63 487.828,258.031 501.068,258.031 C512.984,258.031 513.977,269.285 513.977,276.236 L513.977,279.877 M510.005,241.812 C493.455,241.812 483.856,252.073 482.201,254.059 L483.525,147.808 C483.525,145.16 481.539,143.174 478.891,143.174 L474.919,143.174 C472.271,143.174 470.285,145.16 470.285,147.808 L471.94,346.739 C471.94,349.387 473.926,351.373 476.574,351.373 C477.236,351.373 478.56,351.042 479.222,350.711 C507.688,336.478 537.478,309.336 537.478,275.243 C537.478,258.031 529.534,241.812 510.005,241.812"/>
<path class="KeySig" d="M605.915,155.861 C605.915,182.01 592.344,195.912 573.146,211.138 L574.139,146.593 C574.801,143.614 579.766,134.015 593.006,134.015 C604.922,134.015 605.915,145.269 605.915,152.22 L605.915,155.861 M601.943,117.796 C585.393,117.796 575.794,128.057 574.139,130.043 L575.463,23.7921 C575.463,21.1441 573.477,19.1581 570.829,19.1581 L566.857,19.1581 C564.209,19.1581 562.223,21.1441 562.223,23.7921 L563.878,222.723 C563.878,225.371 565.864,227.357 568.512,227.357 C569.174,227.357 570.498,227.026 571.16,226.695 C599.626,212.462 629.416,185.32 629.416,151.227 C629.416,134.015 621.472,117.796 601.943,117.796"/>
<path class="KeySig" d="M697.868,321.215 C697.868,347.364 684.297,361.266 665.099,376.492 L666.092,311.947 C666.754,308.968 671.719,299.369 684.959,299.369 C696.875,299.369 697.868,310.623 697.868,317.574 L697.868,321.215 M693.896,283.15 C677.346,283.15 667.747,293.411 666.092,295.397 L667.416,189.146 C667.416,186.498 665.43,184.512 662.782,184.512 L658.81,184.512 C656.162,184.512 654.176,186.498 654.176,189.146 L655.831,388.077 C655.831,390.725 657.817,392.711 660.465,392.711 C661.127,392.711 662.451,392.38 663.113,392.049 C691.579,377.816 721.369,350.674 721.369,316.581 C721.369,299.369 713.425,283.15 693.896,283.15"/>
<path class="KeySig" d="M513.977,1230.66 C513.977,1256.81 500.406,1270.72 481.208,1285.94 L482.201,1221.4 C482.863,1218.42 487.828,1208.82 501.068,1208.82 C512.984,1208.82 513.977,1220.07 513.977,1227.02 L513.977,1230.66 M510.005,1192.6 C493.455,1192.6 483.856,1202.86 482.201,1204.85 L483.525,1098.6 C483.525,1095.95 481.539,1093.96 478.891,1093.96 L474.919,1093.96 C472.271,1093.96 470.285,1095.95 470.285,1098.6 L471.94,1297.53 C471.94,1300.17 473.926,1302.16 476.574,1302.16 C477.236,1302.16 478.56,1301.83 479.222,1301.5 C507.688,1287.27 537.478,1260.12 537.478,1226.03 C537.478,1208.82 529.534,1192.6 510.005,1192.6"/>
<path class="KeySig" d="M605.915,1106.65 C605.915,1132.8 592.344,1146.7 573.146,1161.93 L574.139,1097.38 C574.801,1094.4 579.766,1084.8 593.006,1084.8 C604.922,1084.8 605.915,1096.06 605.915,1103.01 L605.915,1106.65 M601.943,1068.58 C585.393,1068.58 575.794,1078.84 574.139,1080.83 L575.463,974.579 C575.463,971.931 573.477,969.945 570.829,969.945 L566.857,969.945 C564.209,969.945 562.223,971.931 562.223,974.579 L563.878,1173.51 C563.878,1176.16 565.864,1178.14 568.512,1178.14 C569.174,1178.14 570.498,1177.81 571.16,1177.48 C599.626,1163.25 629.416,1136.11 629.416,1102.01 C629.416,1084.8 621.472,1068.58 601.943,1068.58"/>
<path class="KeySig" d="M697.868,1272 C697.868,1298.15 684.297,1312.05 665.099,1327.28 L666.092,1262.73 C666.754,1259.76 671.719,1250.16 684.959,1250.16 C696.875,1250.16 697.868,1261.41 697.868,1268.36 L697.868,1272 M693.896,1233.94 C677.346,1233.94 667.747,1244.2 666.092,1246.18 L667.416,1139.93 C667.416,1137.29 665.43,1135.3 662.782,1135.3 L658.81,1135.3 C656.162,1135.3 654.176,1137.29 654.176,1139.93 L655.831,1338.86 C655.831,1341.51 657.817,1343.5 660.465,1343.5 C661.127,1343.5 662.451,1343.17 663.113,1342.84 C691.579,1328.6 721.369,1301.46 721.369,1267.37 C721.369,1250.16 713.425,1233.94 693.896,1233.94"/>
<path class="Bracket" transform="matrix(3.625,0,0,3.65971,8,1326.58)" d="M2.979,-165.5 C8.937,-171.789 20.522,-184.698 20.522,-208.53 C20.522,-238.651 7.613,-269.103 7.613,-287.97 C7.613,-308.161 19.198,-327.028 19.86,-327.69 C19.86,-328.021 19.86,-328.021 19.86,-328.352 C19.86,-328.683 19.86,-329.014 19.529,-329.345 C19.198,-329.345 18.536,-329.345 18.205,-328.683 C17.874,-328.352 0,-310.478 0,-283.336 C0,-254.208 11.585,-233.686 11.585,-195.621 C11.585,-188.339 8.606,-176.754 0.331,-166.493 C0,-166.493 0,-165.831 0,-165.5 C-0.331,-165.169 0,-164.838 0.331,-164.507 C8.606,-154.246 11.585,-142.661 11.585,-135.379 C11.585,-97.314 0,-76.792 0,-47.664 C0,-20.853 17.874,-2.648 18.205,-2.317 C18.536,-1.655 19.198,-1.324 19.529,-1.655 C19.86,-1.986 20.191,-2.317 19.86,-2.648 C19.86,-2.648 19.86,-2.979 19.86,-3.31 C19.198,-3.972 7.613,-22.839 7.613,-43.03 C7.613,-61.897 20.522,-92.349 20.522,-122.47 C20.522,-146.633 8.937,-159.211 2.979,-165.5"/>
</svg>
